<svg width="56" height="56" viewBox="0 0 56 56" fill="none" xmlns="http://www.w3.org/2000/svg">
<g id="Contrast border">
<path d="M0 28C0 12.536 12.536 0 28 0C43.464 0 56 12.536 56 28C56 43.464 43.464 56 28 56C12.536 56 0 43.464 0 28Z" fill="#452F15"/>
<g id="Group 6">
<path id="Vector" d="M20.1429 15C21.057 14.9988 21.9621 15.1811 22.8046 15.536C22.7271 14.2472 22.9242 12.9567 23.3828 11.7498C23.8415 10.5428 24.5512 9.44709 25.465 8.535L27 7V23H25.8571C24.0385 23 22.2944 22.2776 21.0084 20.9916C19.7224 19.7056 19 17.9615 19 16.1429C19 15.8398 19.1204 15.5491 19.3347 15.3347C19.5491 15.1204 19.8398 15 20.1429 15Z" fill="#6ED3CB"/>
<path id="Vector_2" d="M20.2143 15C21.1856 14.9988 22.1472 15.1811 23.0424 15.536C22.96 14.2472 23.1695 12.9567 23.6568 11.7498C24.1441 10.5428 24.8981 9.44709 25.8691 8.535L27.5 7L29.1309 8.535C30.1019 9.44709 30.8559 10.5428 31.3432 11.7498C31.8305 12.9567 32.04 14.2472 31.9576 15.536C32.8528 15.1811 33.8144 14.9988 34.7857 15C35.1078 15 35.4166 15.1204 35.6443 15.3347C35.8721 15.5491 36 15.8398 36 16.1429C36 17.9615 35.2324 19.7056 33.8661 20.9916C32.4997 22.2776 30.6466 23 28.7143 23H26.2857C24.3534 23 22.5003 22.2776 21.1339 20.9916C19.7676 19.7056 19 17.9615 19 16.1429C19 15.8398 19.1279 15.5491 19.3557 15.3347C19.5834 15.1204 19.8922 15 20.2143 15Z" fill="#3BADA1"/>
<path id="Vector_3" d="M20.1429 15C21.057 14.9988 21.9621 15.1811 22.8046 15.536C22.7271 14.2472 22.9242 12.9567 23.3828 11.7498C23.8415 10.5428 24.5512 9.44709 25.465 8.535L27 7V23H25.8571C24.0385 23 22.2944 22.2776 21.0084 20.9916C19.7224 19.7056 19 17.9615 19 16.1429C19 15.8398 19.1204 15.5491 19.3347 15.3347C19.5491 15.1204 19.8398 15 20.1429 15Z" fill="#6ED3CB"/>
<path id="Vector_4" d="M27.5 35C29.9853 35 32 32.9853 32 30.5C32 28.0147 29.9853 26 27.5 26C25.0147 26 23 28.0147 23 30.5C23 32.9853 25.0147 35 27.5 35Z" fill="#EE5F57"/>
<path id="Vector_5" d="M27.5 49C29.9853 49 32 46.9853 32 44.5C32 42.0147 29.9853 40 27.5 40C25.0147 40 23 42.0147 23 44.5C23 46.9853 25.0147 49 27.5 49Z" fill="#EE5F57"/>
<path id="Vector_6" d="M35.5 35C37.9853 35 40 32.9853 40 30.5C40 28.0147 37.9853 26 35.5 26C33.0147 26 31 28.0147 31 30.5C31 32.9853 33.0147 35 35.5 35Z" fill="#EE5F57"/>
<path id="Vector_7" d="M19.5 35C21.9853 35 24 32.9853 24 30.5C24 28.0147 21.9853 26 19.5 26C17.0147 26 15 28.0147 15 30.5C15 32.9853 17.0147 35 19.5 35Z" fill="#EE5F57"/>
<path id="Vector_8" d="M31.5 42C33.9853 42 36 39.9853 36 37.5C36 35.0147 33.9853 33 31.5 33C29.0147 33 27 35.0147 27 37.5C27 39.9853 29.0147 42 31.5 42Z" fill="#EE5F57"/>
<path id="Vector_9" d="M23.5 42C25.9853 42 28 39.9853 28 37.5C28 35.0147 25.9853 33 23.5 33C21.0147 33 19 35.0147 19 37.5C19 39.9853 21.0147 42 23.5 42Z" fill="#EE5F57"/>
<path id="Vector_10" d="M31.5 28C33.9853 28 36 25.9853 36 23.5C36 21.0147 33.9853 19 31.5 19C29.0147 19 27 21.0147 27 23.5C27 25.9853 29.0147 28 31.5 28Z" fill="#EE5F57"/>
<path id="Vector_11" d="M23.5 28C25.9853 28 28 25.9853 28 23.5C28 21.0147 25.9853 19 23.5 19C21.0147 19 19 21.0147 19 23.5C19 25.9853 21.0147 28 23.5 28Z" fill="#EE5F57"/>
<path id="Vector_12" d="M26.5 32C27.8807 32 29 30.8807 29 29.5C29 28.1193 27.8807 27 26.5 27C25.1193 27 24 28.1193 24 29.5C24 30.8807 25.1193 32 26.5 32Z" fill="#CA3C34"/>
<path id="Vector_13" d="M26.5 46C27.8807 46 29 44.8807 29 43.5C29 42.1193 27.8807 41 26.5 41C25.1193 41 24 42.1193 24 43.5C24 44.8807 25.1193 46 26.5 46Z" fill="#CA3C34"/>
<path id="Vector_14" d="M34 32C35.1046 32 36 30.8807 36 29.5C36 28.1193 35.1046 27 34 27C32.8954 27 32 28.1193 32 29.5C32 30.8807 32.8954 32 34 32Z" fill="#CA3C34"/>
<path id="Vector_15" d="M18.5 32C19.8807 32 21 30.8807 21 29.5C21 28.1193 19.8807 27 18.5 27C17.1193 27 16 28.1193 16 29.5C16 30.8807 17.1193 32 18.5 32Z" fill="#CA3C34"/>
<path id="Vector_16" d="M30 39C31.1046 39 32 37.8807 32 36.5C32 35.1193 31.1046 34 30 34C28.8954 34 28 35.1193 28 36.5C28 37.8807 28.8954 39 30 39Z" fill="#CA3C34"/>
<path id="Vector_17" d="M22.5 39C23.8807 39 25 37.8807 25 36.5C25 35.1193 23.8807 34 22.5 34C21.1193 34 20 35.1193 20 36.5C20 37.8807 21.1193 39 22.5 39Z" fill="#CA3C34"/>
<path id="Vector_18" d="M30 24C31.1046 24 32 23.1046 32 22C32 20.8954 31.1046 20 30 20C28.8954 20 28 20.8954 28 22C28 23.1046 28.8954 24 30 24Z" fill="#CA3C34"/>
<path id="Vector_19" d="M22.5 24C23.8807 24 25 23.1046 25 22C25 20.8954 23.8807 20 22.5 20C21.1193 20 20 20.8954 20 22C20 23.1046 21.1193 24 22.5 24Z" fill="#CA3C34"/>
</g>
</g>
</svg>
