<svg width="72" height="72" viewBox="0 0 72 72" fill="none" xmlns="http://www.w3.org/2000/svg">
<path d="M55.4437 18.389C55.2224 18.1987 54.9531 18.0722 54.6649 18.023C54.3766 17.9738 54.0804 18.0039 53.808 18.1099L17.619 32.2096C17.1061 32.4081 16.6719 32.7672 16.3817 33.2327C16.0916 33.6982 15.9611 34.2449 16.0101 34.7906C16.059 35.3363 16.2847 35.8514 16.6531 36.2583C17.0216 36.6653 17.5128 36.942 18.0529 37.047L27.4296 38.8799V49.2889C27.4278 49.8558 27.597 50.4103 27.9154 50.8804C28.2338 51.3504 28.6867 51.7145 29.2153 51.9253C29.7432 52.1399 30.3237 52.1914 30.8813 52.0732C31.4389 51.9549 31.9479 51.6723 32.3421 51.2622L36.8635 46.5937L44.0367 52.8444C44.5542 53.3015 45.2217 53.5544 45.9134 53.5556C46.2166 53.5553 46.5178 53.5079 46.8063 53.4151C47.2776 53.2662 47.7015 52.997 48.0358 52.6342C48.3701 52.2715 48.6031 51.8278 48.7116 51.3475L55.9598 19.9552C56.0246 19.6721 56.0108 19.3768 55.9199 19.1009C55.829 18.825 55.6644 18.5789 55.4437 18.389ZM44.5259 24.7891L28.5278 36.1954L19.6708 34.4656L44.5259 24.7891ZM30.2868 49.2889V40.8479L34.7135 44.7128L30.2868 49.2889ZM45.917 50.7111L31.1528 37.8221L52.4027 22.6593L45.917 50.7111Z" fill="#055E40"/>
</svg>
