<svg width="40" height="40" viewBox="0 0 40 40" fill="none" xmlns="http://www.w3.org/2000/svg">
<rect width="40" height="40" rx="8.64865" fill="white"/>
<path d="M18.3631 31.5433L21.7749 18.6439C21.9778 17.877 22.0792 17.4935 21.8673 17.2128C21.6554 16.9321 21.2815 16.925 20.5337 16.9108C17.1564 16.8466 16.0492 18.0075 15.9321 18.6827L12.3641 32.3278C12.1573 33.1187 12.0539 33.5142 12.2791 33.7974C12.5042 34.0806 12.8868 34.0697 13.652 34.0479H13.6521C17.0149 33.9521 18.1506 32.6132 18.3155 31.7752C18.3407 31.6472 18.3533 31.5832 18.3559 31.5718C18.3585 31.5605 18.3601 31.5548 18.3631 31.5433Z" fill="#1C1917"/>
<path d="M27.4496 24.0419L29.0022 18.6039L29.0022 18.6039C29.2236 17.8285 29.3343 17.4407 29.1158 17.1527C28.8974 16.8646 28.5234 16.8665 27.7756 16.8703C24.4848 16.8868 23.2402 18.3358 23.0313 19.1683L21.361 24.978C21.145 25.7293 21.037 26.1049 21.2498 26.392C21.4627 26.6792 21.82 26.6845 22.5345 26.6953C25.8475 26.745 27.1887 25.0318 27.4496 24.0419Z" fill="#1C1917"/>
<path d="M15.0666 15.8565L27.6879 15.9623L27.6879 15.9623C28.4883 15.969 28.8886 15.9723 29.1081 15.6876C29.3275 15.4029 29.2301 15.0448 29.0352 14.3284C28.1687 11.1431 26.4434 10.3137 25.584 10.3274L12.5726 10.2034C11.7972 10.196 11.4095 10.1923 11.1897 10.4712C10.9698 10.7501 11.0559 11.094 11.228 11.7817C12.0352 15.0061 14.0414 15.8606 15.0666 15.8565Z" fill="#D38428"/>
</svg>
