<svg width="162" height="40" viewBox="0 0 162 40" fill="none" xmlns="http://www.w3.org/2000/svg">
<rect width="40" height="40" rx="8.64865" fill="#055E40"/>
<path d="M18.3631 31.5413L21.7749 18.642C21.9778 17.8751 22.0792 17.4916 21.8673 17.2109C21.6554 16.9301 21.2815 16.923 20.5337 16.9088C17.1564 16.8446 16.0492 18.0055 15.9321 18.6807L12.3641 32.3259C12.1573 33.1168 12.0539 33.5122 12.2791 33.7954C12.5042 34.0786 12.8868 34.0677 13.652 34.0459H13.6521C17.0149 33.9502 18.1506 32.6112 18.3155 31.7733C18.3407 31.6452 18.3533 31.5812 18.3559 31.5699C18.3585 31.5586 18.3601 31.5528 18.3631 31.5413Z" fill="white"/>
<path d="M27.4487 24.0429L29.0012 18.6049L29.0012 18.6049C29.2226 17.8295 29.3333 17.4417 29.1149 17.1537C28.8964 16.8656 28.5225 16.8675 27.7746 16.8712C24.4839 16.8878 23.2392 18.3368 23.0304 19.1693L21.36 24.979C21.144 25.7302 21.036 26.1059 21.2488 26.393C21.4617 26.6802 21.819 26.6855 22.5335 26.6962C25.8466 26.746 27.1877 25.0328 27.4487 24.0429Z" fill="white"/>
<path d="M15.0666 15.8565L27.6879 15.9623L27.6879 15.9623C28.4883 15.969 28.8886 15.9723 29.1081 15.6876C29.3275 15.4029 29.2301 15.0448 29.0352 14.3284C28.1687 11.1431 26.4434 10.3137 25.584 10.3274L12.5726 10.2034C11.7972 10.196 11.4095 10.1923 11.1897 10.4712C10.9698 10.7501 11.0559 11.094 11.228 11.7817C12.0352 15.0061 14.0414 15.8606 15.0666 15.8565Z" fill="#FDB022"/>
<path d="M51.4059 30V12.2681H57.8561C59.0461 12.2681 60.0934 12.4902 60.9978 12.9345C61.9181 13.3629 62.6322 13.9976 63.1399 14.8386C63.6477 15.6637 63.9016 16.6554 63.9016 17.8138C63.9016 18.9562 63.6398 19.94 63.1161 20.7651C62.6084 21.5902 61.9023 22.2249 60.9978 22.6692C60.0934 23.1135 59.0461 23.3357 57.8561 23.3357H54.2145V30H51.4059ZM54.2145 20.8365H57.9275C58.5622 20.8365 59.1175 20.7096 59.5936 20.4557C60.0696 20.2018 60.4425 19.8527 60.7122 19.4085C60.982 18.9483 61.1168 18.4088 61.1168 17.79C61.1168 17.1711 60.982 16.6396 60.7122 16.1953C60.4425 15.7351 60.0696 15.386 59.5936 15.148C59.1175 14.8942 58.5622 14.7672 57.9275 14.7672H54.2145V20.8365ZM66.5312 30V11.9825H69.2208V30H66.5312ZM78.5774 30.2856C77.3398 30.2856 76.2053 29.9921 75.1739 29.405C74.1584 28.8179 73.3491 28.0166 72.7461 27.001C72.1432 25.9855 71.8417 24.8351 71.8417 23.5499C71.8417 22.2487 72.1432 21.0983 72.7461 20.0987C73.3491 19.0832 74.1584 18.2898 75.1739 17.7186C76.1894 17.1315 77.3239 16.8379 78.5774 16.8379C79.8468 16.8379 80.9814 17.1315 81.981 17.7186C82.9965 18.2898 83.7979 19.0832 84.3849 20.0987C84.9879 21.0983 85.2894 22.2487 85.2894 23.5499C85.2894 24.851 84.9879 26.0093 84.3849 27.0248C83.782 28.0404 82.9727 28.8417 81.9572 29.4288C80.9417 30 79.8151 30.2856 78.5774 30.2856ZM78.5774 27.7865C79.3391 27.7865 80.0135 27.604 80.6006 27.2391C81.1876 26.8741 81.6478 26.3743 81.981 25.7396C82.3301 25.089 82.5047 24.3591 82.5047 23.5499C82.5047 22.7406 82.3301 22.0187 81.981 21.384C81.6478 20.7493 81.1876 20.2494 80.6006 19.8845C80.0135 19.5195 79.3391 19.3371 78.5774 19.3371C77.8317 19.3371 77.1573 19.5195 76.5543 19.8845C75.9672 20.2494 75.4992 20.7493 75.1501 21.384C74.8169 22.0187 74.6502 22.7406 74.6502 23.5499C74.6502 24.3591 74.8169 25.089 75.1501 25.7396C75.4992 26.3743 75.9672 26.8741 76.5543 27.2391C77.1573 27.604 77.8317 27.7865 78.5774 27.7865ZM90.8007 30L86.3736 17.1235H89.2298L92.6096 27.3819H91.6099L95.0611 17.1235H97.5126L100.94 27.3819H99.9403L103.344 17.1235H106.2L101.749 30H99.3215L95.8465 19.5037H96.7272L93.2522 30H90.8007ZM113.613 30.1428C112.265 30.1428 111.217 29.762 110.472 29.0003C109.726 28.2387 109.353 27.1677 109.353 25.7872V19.5513H107.092V17.1235H107.449C108.052 17.1235 108.52 16.949 108.853 16.5999C109.186 16.2508 109.353 15.7748 109.353 15.1718V14.1722H112.043V17.1235H114.97V19.5513H112.043V25.6682C112.043 26.1125 112.114 26.4933 112.257 26.8106C112.4 27.1121 112.63 27.3501 112.947 27.5247C113.264 27.6833 113.677 27.7627 114.185 27.7627C114.312 27.7627 114.454 27.7548 114.613 27.7389C114.772 27.723 114.922 27.7071 115.065 27.6913V30C114.843 30.0317 114.597 30.0635 114.327 30.0952C114.058 30.1269 113.82 30.1428 113.613 30.1428ZM123.503 30.2856C122.218 30.2856 121.075 29.9921 120.076 29.405C119.092 28.802 118.322 27.9928 117.767 26.9772C117.212 25.9459 116.934 24.7955 116.934 23.5261C116.934 22.2249 117.212 21.0745 117.767 20.0749C118.338 19.0752 119.1 18.2898 120.052 17.7186C121.004 17.1315 122.083 16.8379 123.289 16.8379C124.257 16.8379 125.121 17.0045 125.883 17.3377C126.645 17.671 127.287 18.1311 127.811 18.7182C128.335 19.2894 128.731 19.948 129.001 20.6937C129.287 21.4395 129.43 22.2329 129.43 23.0738C129.43 23.2801 129.422 23.4943 129.406 23.7165C129.39 23.9386 129.358 24.1449 129.311 24.3353H119.052V22.1932H127.787L126.502 23.169C126.661 22.3915 126.605 21.7013 126.335 21.0983C126.081 20.4795 125.685 19.9956 125.145 19.6465C124.622 19.2815 124.003 19.099 123.289 19.099C122.575 19.099 121.94 19.2815 121.385 19.6465C120.829 19.9956 120.401 20.5033 120.099 21.1697C119.798 21.8203 119.679 22.6137 119.742 23.5499C119.663 24.4226 119.782 25.1842 120.099 25.8348C120.433 26.4854 120.893 26.9931 121.48 27.3581C122.083 27.723 122.765 27.9055 123.527 27.9055C124.304 27.9055 124.963 27.731 125.502 27.3819C126.058 27.0328 126.494 26.5806 126.811 26.0252L129.001 27.0963C128.747 27.6992 128.351 28.2466 127.811 28.7385C127.287 29.2146 126.653 29.5954 125.907 29.881C125.177 30.1507 124.376 30.2856 123.503 30.2856ZM132.054 30V17.1235H134.625V19.7179L134.387 19.3371C134.672 18.4961 135.133 17.8931 135.767 17.5282C136.402 17.1473 137.164 16.9569 138.052 16.9569H138.838V19.4085H137.719C136.83 19.4085 136.108 19.6861 135.553 20.2415C135.014 20.781 134.744 21.5585 134.744 22.574V30H132.054ZM140.678 30V17.1235H143.248V19.7179L143.01 19.3371C143.296 18.4961 143.756 17.8931 144.391 17.5282C145.025 17.1473 145.787 16.9569 146.676 16.9569H147.461V19.4085H146.342C145.454 19.4085 144.732 19.6861 144.176 20.2415C143.637 20.781 143.367 21.5585 143.367 22.574V30H140.678ZM153.157 30.2856C152.284 30.2856 151.514 30.1349 150.848 29.8334C150.197 29.516 149.69 29.0876 149.325 28.5481C148.96 27.9928 148.777 27.3422 148.777 26.5964C148.777 25.8983 148.928 25.2715 149.23 24.7161C149.547 24.1608 150.031 23.6927 150.681 23.3119C151.332 22.931 152.149 22.6613 153.133 22.5026L157.608 21.7648V23.8831L153.657 24.5733C152.943 24.7003 152.419 24.9303 152.086 25.2636C151.752 25.5809 151.586 25.9935 151.586 26.5012C151.586 26.9931 151.768 27.3977 152.133 27.7151C152.514 28.0166 152.998 28.1673 153.585 28.1673C154.315 28.1673 154.95 28.0086 155.489 27.6913C156.045 27.3739 156.473 26.9534 156.775 26.4298C157.076 25.8903 157.227 25.2953 157.227 24.6447V21.3364C157.227 20.7017 156.989 20.186 156.513 19.7893C156.053 19.3767 155.434 19.1704 154.656 19.1704C153.942 19.1704 153.315 19.3609 152.776 19.7417C152.252 20.1066 151.864 20.5826 151.61 21.1697L149.372 20.0511C149.61 19.4164 149.999 18.861 150.539 18.385C151.078 17.8931 151.705 17.5123 152.419 17.2425C153.149 16.9728 153.918 16.8379 154.728 16.8379C155.743 16.8379 156.64 17.0283 157.417 17.4092C158.211 17.79 158.821 18.3215 159.25 19.0038C159.694 19.6703 159.916 20.4478 159.916 21.3364V30H157.346V27.6675L157.893 27.7389C157.592 28.2625 157.203 28.7147 156.727 29.0956C156.267 29.4764 155.735 29.7699 155.132 29.9762C154.545 30.1825 153.887 30.2856 153.157 30.2856Z" fill="#04432D"/>
</svg>
