<svg width="162" height="40" viewBox="0 0 162 40" fill="none" xmlns="http://www.w3.org/2000/svg">
<rect width="40" height="40" rx="8.64865" fill="white"/>
<path d="M18.3631 31.5433L21.7749 18.6439C21.9778 17.877 22.0792 17.4935 21.8673 17.2128C21.6554 16.9321 21.2815 16.925 20.5337 16.9108C17.1564 16.8466 16.0492 18.0075 15.9321 18.6827L12.3641 32.3278C12.1573 33.1187 12.0539 33.5142 12.2791 33.7974C12.5042 34.0806 12.8868 34.0697 13.652 34.0479H13.6521C17.0149 33.9521 18.1506 32.6132 18.3155 31.7752C18.3407 31.6472 18.3533 31.5832 18.3559 31.5718C18.3585 31.5605 18.3601 31.5548 18.3631 31.5433Z" fill="#1C1917"/>
<path d="M27.4496 24.0419L29.0022 18.6039L29.0022 18.6039C29.2236 17.8285 29.3343 17.4407 29.1158 17.1527C28.8974 16.8646 28.5234 16.8665 27.7756 16.8703C24.4848 16.8868 23.2402 18.3358 23.0313 19.1683L21.361 24.978C21.145 25.7293 21.037 26.1049 21.2498 26.392C21.4627 26.6792 21.82 26.6845 22.5345 26.6953C25.8475 26.745 27.1887 25.0318 27.4496 24.0419Z" fill="#1C1917"/>
<path d="M15.0666 15.8565L27.6879 15.9623L27.6879 15.9623C28.4883 15.969 28.8886 15.9723 29.1081 15.6876C29.3275 15.4029 29.2301 15.0448 29.0352 14.3284C28.1687 11.1431 26.4434 10.3137 25.584 10.3274L12.5726 10.2034C11.7972 10.196 11.4095 10.1923 11.1897 10.4712C10.9698 10.7501 11.0559 11.094 11.228 11.7817C12.0352 15.0061 14.0414 15.8606 15.0666 15.8565Z" fill="#D38428"/>
<path d="M51.405 30V12.2681H57.8551C59.0452 12.2681 60.0924 12.4902 60.9969 12.9345C61.9172 13.3629 62.6312 13.9976 63.139 14.8386C63.6467 15.6637 63.9006 16.6554 63.9006 17.8138C63.9006 18.9562 63.6388 19.94 63.1152 20.7651C62.6074 21.5902 61.9013 22.2249 60.9969 22.6692C60.0924 23.1135 59.0452 23.3357 57.8551 23.3357H54.2135V30H51.405ZM54.2135 20.8365H57.9265C58.5612 20.8365 59.1166 20.7096 59.5926 20.4557C60.0686 20.2018 60.4415 19.8527 60.7112 19.4085C60.981 18.9483 61.1159 18.4088 61.1159 17.79C61.1159 17.1711 60.981 16.6396 60.7112 16.1953C60.4415 15.7351 60.0686 15.386 59.5926 15.148C59.1166 14.8942 58.5612 14.7672 57.9265 14.7672H54.2135V20.8365ZM66.5303 30V11.9825H69.2198V30H66.5303ZM78.5765 30.2856C77.3388 30.2856 76.2043 29.9921 75.1729 29.405C74.1574 28.8179 73.3481 28.0166 72.7452 27.001C72.1422 25.9855 71.8407 24.8351 71.8407 23.5499C71.8407 22.2487 72.1422 21.0983 72.7452 20.0987C73.3481 19.0832 74.1574 18.2898 75.1729 17.7186C76.1884 17.1315 77.3229 16.8379 78.5765 16.8379C79.8459 16.8379 80.9804 17.1315 81.98 17.7186C82.9956 18.2898 83.7969 19.0832 84.384 20.0987C84.9869 21.0983 85.2884 22.2487 85.2884 23.5499C85.2884 24.851 84.9869 26.0093 84.384 27.0248C83.781 28.0404 82.9718 28.8417 81.9562 29.4288C80.9407 30 79.8141 30.2856 78.5765 30.2856ZM78.5765 27.7865C79.3381 27.7865 80.0125 27.604 80.5996 27.2391C81.1867 26.8741 81.6468 26.3743 81.98 25.7396C82.3291 25.089 82.5037 24.3591 82.5037 23.5499C82.5037 22.7406 82.3291 22.0187 81.98 21.384C81.6468 20.7493 81.1867 20.2494 80.5996 19.8845C80.0125 19.5195 79.3381 19.3371 78.5765 19.3371C77.8307 19.3371 77.1563 19.5195 76.5534 19.8845C75.9663 20.2494 75.4982 20.7493 75.1491 21.384C74.8159 22.0187 74.6493 22.7406 74.6493 23.5499C74.6493 24.3591 74.8159 25.089 75.1491 25.7396C75.4982 26.3743 75.9663 26.8741 76.5534 27.2391C77.1563 27.604 77.8307 27.7865 78.5765 27.7865ZM90.7997 30L86.3727 17.1235H89.2288L92.6086 27.3819H91.6089L95.0601 17.1235H97.5116L100.939 27.3819H99.9394L103.343 17.1235H106.199L101.748 30H99.3205L95.8456 19.5037H96.7262L93.2512 30H90.7997ZM113.612 30.1428C112.264 30.1428 111.216 29.762 110.471 29.0003C109.725 28.2387 109.352 27.1677 109.352 25.7872V19.5513H107.091V17.1235H107.448C108.051 17.1235 108.519 16.949 108.852 16.5999C109.185 16.2508 109.352 15.7748 109.352 15.1718V14.1722H112.042V17.1235H114.969V19.5513H112.042V25.6682C112.042 26.1125 112.113 26.4933 112.256 26.8106C112.399 27.1121 112.629 27.3501 112.946 27.5247C113.263 27.6833 113.676 27.7627 114.184 27.7627C114.311 27.7627 114.453 27.7548 114.612 27.7389C114.771 27.723 114.921 27.7071 115.064 27.6913V30C114.842 30.0317 114.596 30.0635 114.326 30.0952C114.057 30.1269 113.819 30.1428 113.612 30.1428ZM123.502 30.2856C122.217 30.2856 121.074 29.9921 120.075 29.405C119.091 28.802 118.321 27.9928 117.766 26.9772C117.211 25.9459 116.933 24.7955 116.933 23.5261C116.933 22.2249 117.211 21.0745 117.766 20.0749C118.337 19.0752 119.099 18.2898 120.051 17.7186C121.003 17.1315 122.082 16.8379 123.288 16.8379C124.256 16.8379 125.121 17.0045 125.882 17.3377C126.644 17.671 127.286 18.1311 127.81 18.7182C128.334 19.2894 128.73 19.948 129 20.6937C129.286 21.4395 129.429 22.2329 129.429 23.0738C129.429 23.2801 129.421 23.4943 129.405 23.7165C129.389 23.9386 129.357 24.1449 129.31 24.3353H119.051V22.1932H127.786L126.501 23.169C126.66 22.3915 126.604 21.7013 126.334 21.0983C126.08 20.4795 125.684 19.9956 125.144 19.6465C124.621 19.2815 124.002 19.099 123.288 19.099C122.574 19.099 121.939 19.2815 121.384 19.6465C120.828 19.9956 120.4 20.5033 120.098 21.1697C119.797 21.8203 119.678 22.6137 119.741 23.5499C119.662 24.4226 119.781 25.1842 120.098 25.8348C120.432 26.4854 120.892 26.9931 121.479 27.3581C122.082 27.723 122.764 27.9055 123.526 27.9055C124.303 27.9055 124.962 27.731 125.501 27.3819C126.057 27.0328 126.493 26.5806 126.81 26.0252L129 27.0963C128.746 27.6992 128.35 28.2466 127.81 28.7385C127.286 29.2146 126.652 29.5954 125.906 29.881C125.176 30.1507 124.375 30.2856 123.502 30.2856ZM132.053 30V17.1235H134.624V19.7179L134.386 19.3371C134.671 18.4961 135.132 17.8931 135.766 17.5282C136.401 17.1473 137.163 16.9569 138.051 16.9569H138.837V19.4085H137.718C136.829 19.4085 136.107 19.6861 135.552 20.2415C135.013 20.781 134.743 21.5585 134.743 22.574V30H132.053ZM140.677 30V17.1235H143.247V19.7179L143.009 19.3371C143.295 18.4961 143.755 17.8931 144.39 17.5282C145.024 17.1473 145.786 16.9569 146.675 16.9569H147.46V19.4085H146.341C145.453 19.4085 144.731 19.6861 144.175 20.2415C143.636 20.781 143.366 21.5585 143.366 22.574V30H140.677ZM153.156 30.2856C152.283 30.2856 151.513 30.1349 150.847 29.8334C150.196 29.516 149.689 29.0876 149.324 28.5481C148.959 27.9928 148.776 27.3422 148.776 26.5964C148.776 25.8983 148.927 25.2715 149.229 24.7161C149.546 24.1608 150.03 23.6927 150.68 23.3119C151.331 22.931 152.148 22.6613 153.132 22.5026L157.607 21.7648V23.8831L153.656 24.5733C152.942 24.7003 152.418 24.9303 152.085 25.2636C151.751 25.5809 151.585 25.9935 151.585 26.5012C151.585 26.9931 151.767 27.3977 152.132 27.7151C152.513 28.0166 152.997 28.1673 153.584 28.1673C154.314 28.1673 154.949 28.0086 155.488 27.6913C156.044 27.3739 156.472 26.9534 156.774 26.4298C157.075 25.8903 157.226 25.2953 157.226 24.6447V21.3364C157.226 20.7017 156.988 20.186 156.512 19.7893C156.052 19.3767 155.433 19.1704 154.655 19.1704C153.941 19.1704 153.314 19.3609 152.775 19.7417C152.251 20.1066 151.863 20.5826 151.609 21.1697L149.371 20.0511C149.609 19.4164 149.998 18.861 150.538 18.385C151.077 17.8931 151.704 17.5123 152.418 17.2425C153.148 16.9728 153.917 16.8379 154.727 16.8379C155.742 16.8379 156.639 17.0283 157.416 17.4092C158.21 17.79 158.82 18.3215 159.249 19.0038C159.693 19.6703 159.915 20.4478 159.915 21.3364V30H157.345V27.6675L157.892 27.7389C157.591 28.2625 157.202 28.7147 156.726 29.0956C156.266 29.4764 155.734 29.7699 155.131 29.9762C154.544 30.1825 153.886 30.2856 153.156 30.2856Z" fill="white"/>
</svg>
