<svg width="222" height="231" viewBox="0 0 222 231" fill="none" xmlns="http://www.w3.org/2000/svg">
<g id="Graphic_Elements" clip-path="url(#clip0_381_23806)">
<path id="Vector" d="M111 221.979C172.027 221.979 221.5 172.506 221.5 111.479C221.5 50.451 172.027 0.978516 111 0.978516C49.9725 0.978516 0.5 50.451 0.5 111.479C0.5 172.506 49.9725 221.979 111 221.979Z" fill="#836420"/>
<g id="Group">
<path id="Vector_2" d="M40.9242 173.771L22.22 175.519C20.8779 175.644 19.6272 174.822 19.216 173.537L6.4686 133.981C5.90319 132.228 7.10825 130.406 8.94154 130.235L27.6457 128.487C28.9878 128.362 30.2386 129.184 30.6498 130.469L43.3971 170.025C43.9625 171.778 42.7575 173.6 40.9242 173.771Z" fill="#3A222B"/>
<path id="Vector_3" d="M11.5916 133.89C11.5916 134.535 11.0662 135.06 10.4208 135.06C9.77543 135.06 9.25 134.535 9.25 133.89C9.25 133.244 9.77543 132.719 10.4208 132.719C11.0662 132.719 11.5916 133.244 11.5916 133.89Z" fill="white"/>
<path id="Vector_4" d="M77.3557 184.033L54.7051 172.879L41.6322 192.109C33.9221 180.167 30.6668 172.879 30.6668 172.879L32.9341 161.183C33.4538 158.499 31.6091 155.929 28.8963 155.563L18.5705 152.725L28.6907 145.671C29.9186 144.815 30.404 143.238 29.8729 141.839C29.1247 139.874 26.7432 139.115 25.0013 140.297L12.0768 149.589C11.0317 150.343 10.4092 151.548 10.4092 152.839V158.07C12.7451 173.633 21.1862 177.808 21.1862 177.808C21.1862 177.808 25.3154 194.079 26.5033 203.486C27.5427 211.721 34.5618 227.61 40.2501 229.683C43.6311 230.911 49.9648 228.735 53.0146 223.555L77.3443 184.028L77.3557 184.033Z" fill="#F0A76E"/>
<g id="Group_2">
<path id="Vector_5" d="M71.039 194.913C70.5706 206.73 70.0909 218.746 69.6511 229.883H156.929L156.364 207.375L158.369 177.288L168.363 189.659C168.797 190.196 169.568 190.327 170.157 189.962L202.151 170.007C202.813 169.596 202.996 168.71 202.556 168.071L179.523 134.466C175.971 129.28 170.859 125.357 164.937 123.261C161.761 122.136 158.414 121.564 155.039 121.564H128.688L94.135 123.112L84.5687 125.597C75.6365 128.589 68.1719 134.854 63.6715 143.13L48.4912 171.052C48.257 171.48 48.4227 172.017 48.8567 172.24L71.7814 184.051C71.4559 187.563 71.176 191.161 71.0275 194.913H71.039Z" fill="#F9EDB5"/>
<path id="Vector_6" d="M161.755 122.352C160.173 121.987 158.569 121.741 156.947 121.627C156.832 121.621 156.718 121.61 156.604 121.604C156.433 121.593 156.267 121.587 156.096 121.581C155.747 121.57 155.399 121.559 155.045 121.559H148.066C138.208 121.559 137.689 160.971 137.689 160.971L84.2547 158.778C84.2547 158.778 84.2547 153.227 86.6191 143.05C88.7437 133.9 94.1465 123.112 94.1465 123.112L89.1321 124.414C87.6814 126.876 86.3793 129.114 85.4769 130.742C80.7652 139.24 73.3406 156.996 71.7929 184.056C71.7244 185.273 71.6044 186.575 71.4674 187.848C71.2846 190.156 71.1361 192.503 71.039 194.919C70.9191 197.951 70.7992 200.995 70.6792 204.034C70.6792 204.034 70.6792 204.034 70.6792 204.04C70.605 205.896 70.5307 207.74 70.4565 209.579C70.3423 212.503 70.2223 215.416 70.1081 218.295C70.011 220.671 69.9196 223.029 69.8283 225.354C69.8283 225.491 69.8168 225.628 69.8111 225.771C69.754 227.158 69.7026 228.523 69.6455 229.883H156.924L156.358 207.375L158.363 177.288C158.363 177.288 153.674 171.84 153.503 166.717C153.217 158.282 150.881 125.14 161.744 122.347L161.755 122.352Z" fill="#2F7346"/>
</g>
<path id="Vector_7" d="M175.394 229.882H203.304L211.351 221.441C215.68 216.895 216.88 210.207 214.407 204.445L198.524 172.273L175.708 186.506L191.431 207.066L175.399 229.888L175.394 229.882Z" fill="#F0A76E"/>
<g id="Group_3">
<g id="Group_4">
<path id="Vector_8" d="M137.78 50.5231C137.551 48.924 137.192 47.3192 136.689 45.7257C131.109 27.9697 110.412 17.7923 90.4684 22.9952C79.5144 25.8508 71.0675 32.7556 66.5957 41.3395C50.2446 43.8582 38.9821 50.0148 37.897 58.4788C36.1208 72.3284 62.2495 87.0976 96.2596 91.4666C130.27 95.8357 159.288 88.1484 161.064 74.2988C162.15 65.8634 152.88 57.0853 137.78 50.5288V50.5231Z" fill="#CDAB5D"/>
<g id="Group_5">
<path id="Vector_9" d="M127.631 106.744L127.425 95.6414C128.042 93.4711 128.493 91.2495 128.807 89.0564C129.218 89.222 129.652 89.3077 130.092 89.3077C132.959 89.3077 135.284 85.6582 135.284 81.1521C135.284 76.646 132.959 72.9965 130.092 72.9965C129.812 72.9965 129.538 73.0308 129.275 73.0993C128.99 69.1187 128.527 66.5429 128.527 66.5429C128.253 64.9609 127.802 63.4532 127.242 62.0025C119.132 58.3988 102.633 53.0188 84.0201 58.0161C78.8572 59.4039 75.3276 60.392 72.8547 61.3743C70.7187 65.9832 69.942 71.1804 70.8558 76.4804C70.8558 76.4804 76.0758 114.14 100.091 116.116C100.114 118.463 99.9657 120.451 99.326 121.564C99.2632 121.673 94.1346 123.112 94.1346 123.112C94.1346 123.112 90.4109 148.801 113.69 148.801C136.968 148.801 132.816 121.559 132.816 121.559C132.816 121.559 127.305 115.665 127.625 106.744H127.631Z" fill="#F0A76E"/>
<path id="Vector_10" d="M129.612 84.4939C129.43 84.5281 129.235 84.4939 129.064 84.3853C128.761 84.1969 128.624 83.8257 128.727 83.483L130.772 77.0122C130.903 76.601 131.343 76.3726 131.754 76.5039C132.165 76.6353 132.394 77.075 132.268 77.4862L131.149 81.0272L132.342 79.8792C132.656 79.5765 133.148 79.588 133.45 79.9021C133.747 80.2162 133.742 80.7074 133.427 81.01L130.018 84.2883C129.904 84.4025 129.761 84.471 129.607 84.4939H129.612Z" fill="#3A222B"/>
<path id="Vector_11" d="M86.5618 87.108C86.8416 88.7357 86.0363 90.2377 84.7627 90.4548C83.4891 90.6718 82.227 89.5353 81.9471 87.9019C81.6673 86.2742 82.4726 84.7721 83.7462 84.5551C85.0197 84.3324 86.2819 85.4746 86.5618 87.108Z" fill="#3A222B"/>
<path id="Vector_12" d="M108.025 82.2201C108.305 83.8478 107.499 85.3498 106.226 85.5668C104.952 85.7896 103.69 84.6473 103.41 83.0139C103.13 81.3862 103.935 79.8842 105.209 79.6672C106.483 79.4502 107.745 80.5867 108.025 82.2201Z" fill="#3A222B"/>
<path id="Vector_13" d="M96.8762 93.2435C96.8762 93.2435 96.8248 93.2149 96.7962 93.2035C95.3227 92.2783 94.6088 91.2674 94.6774 90.188C94.7744 88.5717 96.602 87.6694 96.8133 87.5723C97.2017 87.3895 97.6643 87.5551 97.8528 87.9492C98.0355 88.3376 97.8699 88.8059 97.4815 88.9944C97.0932 89.1828 96.2708 89.7425 96.2422 90.2965C96.2137 90.742 96.7105 91.3074 97.63 91.8842C97.9956 92.1127 98.1041 92.5981 97.8756 92.9636C97.6586 93.3063 97.2303 93.4262 96.8762 93.2549V93.2435Z" fill="#3A222B"/>
<path id="Vector_14" d="M76.641 81.694C76.3954 81.7339 76.1327 81.6597 75.9442 81.4712C75.6415 81.1628 75.6472 80.6659 75.9556 80.3633C76.1441 80.1805 80.5817 75.9428 85.8417 78.1016C86.2415 78.2672 86.4299 78.7241 86.27 79.1239C86.1044 79.5237 85.6532 79.7122 85.2477 79.5523C80.9244 77.7761 77.0864 81.4484 77.0465 81.4884C76.9265 81.6026 76.7837 81.6711 76.6352 81.6997L76.641 81.694Z" fill="#3A222B"/>
<path id="Vector_15" d="M109.515 73.5627C109.344 73.6198 109.155 73.6256 108.978 73.5627C108.773 73.4828 103.93 71.7123 100.686 75.0419C100.383 75.3503 99.8861 75.356 99.5777 75.0534C99.2693 74.7507 99.2636 74.2538 99.5663 73.9454C103.536 69.8733 109.292 71.9979 109.538 72.095C109.943 72.2492 110.143 72.7003 109.989 73.1058C109.904 73.3286 109.726 73.4885 109.521 73.5627H109.515Z" fill="#3A222B"/>
<path id="Vector_16" d="M98.8807 104.208C94.9057 104.208 91.8731 101.889 91.8331 101.855C91.5076 101.598 91.4448 101.124 91.7018 100.798C91.9588 100.473 92.4328 100.41 92.7641 100.667C92.9868 100.838 98.2125 104.808 103.638 101.232C109.041 97.6743 108.573 94.3847 108.55 94.2476C108.481 93.8421 108.755 93.4481 109.161 93.3795C109.572 93.3053 109.955 93.5737 110.035 93.9792C110.069 94.1563 110.783 98.3425 104.472 102.5C102.542 103.768 100.623 104.214 98.8865 104.214L98.8807 104.208Z" fill="#3A222B"/>
</g>
<path id="Vector_17" d="M66.6984 69.3522C66.5727 73.0187 68.4175 79.8607 72.2268 83.0933C71.2331 79.1468 70.8618 76.474 70.8618 76.474C69.9481 71.1855 70.7248 65.994 72.8493 61.3965H72.7922C70.5763 62.2874 69.217 63.1727 68.3318 64.3549C67.1381 65.9426 66.7898 67.9986 66.6984 69.3522Z" fill="#3A222B"/>
<path id="Vector_18" d="M131.8 48.8728C131.669 48.8956 131.532 48.8842 131.4 48.8385C122.759 45.7316 112.805 43.39 102.599 42.0822C91.6504 40.6772 80.7592 40.4887 71.0959 41.5339C70.6675 41.5796 70.2791 41.2712 70.2335 40.8428C70.1878 40.4145 70.4619 40.0204 70.9245 39.9804C80.7078 38.9182 91.7246 39.1123 102.799 40.5344C113.107 41.8594 123.182 44.2239 131.931 47.3707C132.337 47.5135 132.548 47.9647 132.4 48.3702C132.303 48.6443 132.063 48.8271 131.8 48.8728Z" fill="#3A222B"/>
</g>
<path id="Vector_19" d="M106.745 115.785C104.375 116.197 102.165 116.259 100.086 116.082C100.109 118.435 99.9717 120.446 99.332 121.559C99.3149 121.588 117.585 123.792 123.422 104.831V104.803C119.984 110.2 114.735 114.403 106.745 115.785Z" fill="#3A222B"/>
<path id="Vector_20" d="M132.52 64.6705C132.263 64.5163 130.396 63.3969 127.26 62.0034C127.26 62.0148 127.266 62.0319 127.272 62.0433C127.266 62.0262 127.249 62.0148 127.243 61.9977C121.121 59.2791 110.218 55.5497 97.2422 56.0352C97.4249 56.5606 103.039 71.918 129.276 73.1288C129.545 73.0602 129.813 72.9974 130.093 72.9974C131.338 72.9974 132.463 73.7113 133.354 74.8592C133.6 70.7757 133.217 67.4404 132.509 64.6705H132.52Z" fill="#3A222B"/>
</g>
</g>
</g>
<defs>
<clipPath id="clip0_381_23806">
<rect width="221" height="229.041" fill="white" transform="translate(0.5 0.978516)"/>
</clipPath>
</defs>
</svg>
