<svg width="222" height="225" viewBox="0 0 222 225" fill="none" xmlns="http://www.w3.org/2000/svg">
<g id="Graphic_Elements" clip-path="url(#clip0_450_32267)">
<path id="Vector" d="M190.333 182.025C231.891 140.467 231.891 73.0879 190.333 31.5298C148.775 -10.0283 81.3955 -10.0284 39.8374 31.5298C-1.72066 73.0879 -1.72066 140.467 39.8374 182.025C81.3955 223.583 148.775 223.583 190.333 182.025Z" fill="#E3F7F1"/>
<g id="Group">
<path id="Vector_2" d="M101.119 112.359L90.9327 117.227C84.8551 120.131 80.631 125.879 79.674 132.545L68.5527 210.14H168.99V135.823C168.99 135.619 168.99 135.41 168.979 135.207C168.732 127.479 162.847 121.094 155.207 119.928L119.94 114.548L101.119 112.359Z" fill="#2F7346"/>
<g id="Group_2">
<path id="Vector_3" d="M158.535 62.0248C158.535 44.7984 144.57 30.8281 127.338 30.8281C116.184 30.8281 105.327 36.5482 99.8155 45.3594C97.7089 48.2085 94.5794 56.1121 92.4343 64.2688C92.4343 64.2688 85.4547 66.4468 84.2007 68.5809C82.9466 70.7149 87.9517 74.532 87.9517 74.532C87.9517 74.532 86.7857 90.7629 91.1693 93.6284C92.1428 94.2664 93.4024 94.8439 94.7664 95.3664C99.194 97.0495 103.897 97.825 108.616 97.814L118.153 122.284L137.535 100.823L134.158 92.4514C148.101 89.3383 158.524 76.9136 158.524 62.0358L158.535 62.0248Z" fill="#F0A76E"/>
<path id="Vector_4" d="M45.4642 165.755C45.3487 164.749 46.1352 163.863 47.1527 163.863C49.2262 163.863 51.1788 164.842 52.4273 166.498L56.0134 171.283C56.0629 171.349 56.1124 171.426 56.1509 171.497L61.0735 180.672C61.2495 181.002 61.3155 181.376 61.255 181.744L60.023 189.428C59.891 190.253 59.1814 190.858 58.3454 190.858H48.1647C47.5707 190.858 47.0207 190.55 46.7127 190.038L39.9365 178.846C39.8265 178.67 39.755 178.472 39.7165 178.268L39.1335 175.018C38.9905 174.225 39.425 173.439 40.173 173.142C40.8826 172.856 41.6966 173.081 42.1586 173.692L42.7581 174.484L42.4776 171.525C42.4556 170.595 42.5711 170.287 43.1596 170.067L43.8306 169.787C44.4191 169.55 45.0956 169.688 45.5357 170.144L45.4642 165.761V165.755Z" fill="#F0A76E"/>
<g id="Group_3">
<path id="Vector_5" d="M161.483 56.5847C156.742 26.0645 125.463 26.4606 117.312 29.6726C109.16 32.8902 95.6301 39.8863 96.9942 50.9855C96.9942 50.9855 98.0667 48.131 102.951 43.0709C102.951 43.0709 106.13 59.4282 120.155 67.9589C120.766 68.3274 121.354 68.7674 121.926 69.2624C123.378 67.0899 125.43 65.8744 127.382 66.2869C130.363 66.9249 131.997 71.1325 131.023 75.6865C130.677 77.3146 130.039 78.7666 129.236 79.9326C132.926 87.7098 135.17 96.3505 136.248 98.226C136.248 98.226 166.219 87.1048 161.483 56.5847Z" fill="#3A222B"/>
<path id="Vector_6" d="M101.51 63.9542C100.878 65.3293 99.497 66.0388 98.419 65.5438C97.3464 65.0488 96.9834 63.5362 97.616 62.1612C98.2485 60.7862 99.629 60.0767 100.707 60.5717C101.78 61.0667 102.143 62.5792 101.51 63.9542Z" fill="#3A222B"/>
<path id="Vector_7" d="M105.656 59.6971C105.519 59.6531 105.392 59.5596 105.31 59.4166C105.216 59.2516 102.978 55.4345 99.1717 56.254C98.8196 56.331 98.4951 56.078 98.4456 55.693C98.3961 55.308 98.6491 54.934 99.0012 54.857C103.654 53.8614 106.305 58.4155 106.415 58.608C106.597 58.9325 106.498 59.3726 106.195 59.5926C106.025 59.7136 105.832 59.7466 105.656 59.6916V59.6971Z" fill="#3A222B"/>
<path id="Vector_8" d="M94.2054 83.6213C89.8878 83.6213 88.1828 81.1077 88.0893 80.9702C87.8748 80.6402 87.9628 80.1947 88.2983 79.9802C88.6228 79.7657 89.0683 79.8537 89.2883 80.1837C89.3928 80.3377 91.7469 83.6378 98.4405 81.4267C98.8145 81.3002 99.2215 81.5092 99.3425 81.8833C99.469 82.2573 99.26 82.6643 98.886 82.7853C97.0655 83.3848 95.5145 83.6158 94.1999 83.6158L94.2054 83.6213Z" fill="#3A222B"/>
</g>
<g id="Group_4">
<path id="Vector_9" d="M90.9327 117.23C84.8551 120.135 80.631 125.882 79.674 132.548L68.5527 210.144H78.5134C79.905 196.504 90.9382 117.23 90.9382 117.23H90.9327Z" fill="#3A222B"/>
<path id="Vector_10" d="M87.1491 212.261H47.7023C46.3933 212.261 45.1337 211.766 44.1712 210.881L0.962336 170.977C0.010817 170.097 0.63233 168.508 1.93036 168.508H42.2737C43.8742 168.508 45.4197 169.113 46.5968 170.196L88.4801 208.868C89.7891 210.072 88.9311 212.256 87.1546 212.256L87.1491 212.261Z" fill="#3A222B"/>
<path id="Vector_11" d="M111.47 199.88L88.7767 202.79C87.0387 199.803 83.1281 193.72 79.102 191.861C73.6954 189.37 69.0643 187.775 68.1623 184.981C67.4198 182.687 64.5542 185.223 65.5113 188.457C65.7203 189.166 69.4769 193.935 69.4769 193.935L50.0119 189.705C48.9724 189.48 47.9384 190.107 47.6579 191.135C47.3939 192.098 47.8889 193.11 48.8074 193.5L61.6007 198.929L61.5787 199.523L46.8109 195.607C46.1619 195.436 45.4964 195.81 45.3039 196.454L45.2599 196.608C45.0893 197.185 45.3589 197.801 45.8979 198.065L51.123 200.645L47.4709 199.534C46.8329 199.341 46.1564 199.688 45.9419 200.32L45.9144 200.403C45.7219 200.969 45.9639 201.591 46.4809 201.882L54.236 206.211L50.925 205.056C50.331 204.847 49.6379 205.084 49.3574 205.65C49.0549 206.261 49.2914 206.981 49.8689 207.295L58.9056 212.223C62.0792 213.955 65.6323 214.868 69.2458 214.89L111.459 224.647V199.886L111.47 199.88Z" fill="#F0A76E"/>
<path id="Vector_12" d="M137.987 132.278V194.391L111.471 199.875V224.636H154.443C162.479 224.636 168.991 218.124 168.991 210.088V132.278C168.991 123.715 162.05 116.773 153.486 116.773C144.922 116.773 137.981 123.715 137.981 132.278H137.987Z" fill="#3A222B"/>
<path id="Vector_13" d="M6.83641 171.985C6.83641 172.463 6.4514 172.848 5.97289 172.848C5.49438 172.848 5.10938 172.463 5.10938 171.985C5.10938 171.506 5.49438 171.121 5.97289 171.121C6.4514 171.121 6.83641 171.506 6.83641 171.985Z" fill="white"/>
</g>
<path id="Vector_14" d="M111.278 104.618C113.912 103.237 116.211 101.296 118.021 98.9362L125.627 89.0195C125.627 89.0195 116.816 96.4557 108.621 97.8032L111.278 104.618Z" fill="#3A222B"/>
<path id="Vector_15" d="M149.548 102.182C147.244 98.942 142.129 95.2789 136.249 98.227C132.481 100.113 123.368 111.884 117.307 120.095L111.273 104.618C111.273 104.618 101.032 108.05 101.12 112.362C101.208 116.68 109.161 133.956 109.161 133.956C110.217 137.322 116.146 138.323 123.714 129.726C134.967 116.949 153.486 121.085 157.452 117.224C161.417 113.363 151.853 105.421 149.548 102.176V102.182Z" fill="white"/>
<path id="Vector_16" d="M165.438 60.935C172.599 48.6532 166.962 31.8724 152.722 23.3197C138.487 14.767 121.025 17.6711 113.544 29.7658L84.0584 26.6858C81.2753 26.3943 79.3283 29.3368 80.6483 31.8009C84.7514 39.435 95.6801 53.9938 124.061 71.0387C152.441 88.0835 170.427 90.8996 179.095 90.9326C181.889 90.9436 183.572 87.8415 182.01 85.5205L165.438 60.935Z" fill="#CDAB5D"/>
<path id="Vector_17" d="M134.648 49.821C131.645 47.687 130.215 47.775 130.594 48.226C141.424 60.9808 164.42 61.9708 165.393 62.0038C165.404 62.0038 165.421 62.0038 165.432 62.0038C165.652 62.0038 165.85 61.9213 166.02 61.8058L165.432 60.9368C165.613 60.6288 165.751 60.3043 165.916 59.9852C165.784 59.9192 165.635 59.8697 165.476 59.8642C165.311 59.8587 153.48 59.3527 143.046 54.5896C138.971 52.7306 138.41 52.4831 134.653 49.8155L134.648 49.821Z" fill="#3A222B"/>
</g>
</g>
</g>
<defs>
<clipPath id="clip0_450_32267">
<rect width="221" height="224.278" fill="white" transform="translate(0.5 0.363281)"/>
</clipPath>
</defs>
</svg>
