<svg width="65" height="64" viewBox="0 0 65 64" fill="none" xmlns="http://www.w3.org/2000/svg">
<g id="Frame" clip-path="url(#clip0_16_2106)">
<path id="Vector" d="M58.0825 35.265C57.3383 34.6924 56.472 34.2991 55.5511 34.1157C54.6301 33.9323 53.6793 33.9637 52.7725 34.2075L42.3125 36.6125C42.5559 35.5845 42.5634 34.5147 42.3345 33.4834C42.1056 32.452 41.6462 31.4859 40.9909 30.6573C40.3355 29.8288 39.501 29.1593 38.5501 28.6991C37.5992 28.2389 36.5564 27.9999 35.5 28H22.985C21.934 27.9974 20.8929 28.203 19.9218 28.6051C18.9508 29.0072 18.069 29.5977 17.3275 30.3425L11.6725 36H4.5C3.43913 36 2.42172 36.4214 1.67157 37.1716C0.921427 37.9217 0.5 38.9391 0.5 40L0.5 50C0.5 51.0609 0.921427 52.0783 1.67157 52.8284C2.42172 53.5786 3.43913 54 4.5 54H30.5C30.6635 54.0001 30.8264 53.9799 30.985 53.94L46.985 49.94C47.087 49.9157 47.1866 49.8823 47.2825 49.84L57 45.705L57.11 45.655C58.0439 45.1883 58.8437 44.4916 59.4339 43.6304C60.0241 42.7692 60.3854 41.772 60.4837 40.7326C60.582 39.6932 60.414 38.6459 59.9957 37.6893C59.5774 36.7328 58.9224 35.8985 58.0925 35.265H58.0825ZM4.5 40H10.5V50H4.5V40ZM55.3575 42.0525L45.8575 46.0975L30.25 50H14.5V38.8275L20.1575 33.1725C20.5276 32.7995 20.9681 32.5037 21.4535 32.3024C21.9389 32.1011 22.4595 31.9983 22.985 32H35.5C36.2957 32 37.0587 32.3161 37.6213 32.8787C38.1839 33.4413 38.5 34.2044 38.5 35C38.5 35.7957 38.1839 36.5587 37.6213 37.1213C37.0587 37.6839 36.2957 38 35.5 38H28.5C27.9696 38 27.4609 38.2107 27.0858 38.5858C26.7107 38.9609 26.5 39.4696 26.5 40C26.5 40.5304 26.7107 41.0391 27.0858 41.4142C27.4609 41.7893 27.9696 42 28.5 42H36.5C36.6505 41.9996 36.8006 41.9828 36.9475 41.95L53.6975 38.0975L53.775 38.0775C54.2863 37.9356 54.8321 37.9877 55.3073 38.224C55.7824 38.4602 56.1535 38.8638 56.3489 39.3572C56.5444 39.8505 56.5505 40.3987 56.3661 40.8963C56.1817 41.3939 55.8198 41.8057 55.35 42.0525H55.3575ZM41.5 24C41.9941 24.0006 42.4875 23.9604 42.975 23.88C43.5234 25.5089 44.5267 26.9466 45.8663 28.0234C47.2059 29.1001 48.8259 29.7707 50.5345 29.956C52.2432 30.1412 53.9692 29.8333 55.5085 29.0687C57.0477 28.3041 58.3358 27.1147 59.2206 25.6413C60.1053 24.1678 60.5496 22.4718 60.501 20.7538C60.4524 19.0357 59.9128 17.3676 58.9462 15.9465C57.9795 14.5254 56.6262 13.4108 55.0462 12.7345C53.4661 12.0582 51.7255 11.8484 50.03 12.13C49.502 10.5606 48.5512 9.16732 47.2824 8.10345C46.0135 7.03957 44.4758 6.34636 42.8384 6.1001C41.201 5.85383 39.5274 6.06407 38.0017 6.70766C36.4761 7.35126 35.1576 8.40327 34.1913 9.74791C33.225 11.0926 32.6484 12.6777 32.5249 14.3289C32.4015 15.9802 32.7359 17.6334 33.4915 19.1068C34.2471 20.5802 35.3945 21.8166 36.8075 22.6799C38.2204 23.5432 39.8442 24 41.5 24ZM56.5 21C56.5 21.9889 56.2068 22.9556 55.6573 23.7779C55.1079 24.6001 54.327 25.241 53.4134 25.6194C52.4998 25.9978 51.4945 26.0969 50.5245 25.9039C49.5546 25.711 48.6637 25.2348 47.9645 24.5355C47.2652 23.8363 46.789 22.9454 46.5961 21.9755C46.4031 21.0056 46.5022 20.0002 46.8806 19.0866C47.259 18.173 47.8999 17.3921 48.7221 16.8427C49.5444 16.2932 50.5111 16 51.5 16C52.8261 16 54.0979 16.5268 55.0355 17.4645C55.9732 18.4022 56.5 19.6739 56.5 21ZM41.5 10C42.5908 10.0005 43.6514 10.3578 44.5203 11.0172C45.3892 11.6766 46.0185 12.6021 46.3125 13.6525C45.2882 14.3732 44.4256 15.2998 43.7798 16.373C43.1341 17.4462 42.7195 18.6424 42.5625 19.885C42.2133 19.9604 41.8572 19.999 41.5 20C40.1739 20 38.9021 19.4732 37.9645 18.5355C37.0268 17.5979 36.5 16.3261 36.5 15C36.5 13.6739 37.0268 12.4022 37.9645 11.4645C38.9021 10.5268 40.1739 10 41.5 10Z" fill="#79716B"/>
</g>
<defs>
<clipPath id="clip0_16_2106">
<rect width="64" height="64" fill="white" transform="translate(0.5)"/>
</clipPath>
</defs>
</svg>
