<svg width="64" height="64" viewBox="0 0 64 64" fill="none" xmlns="http://www.w3.org/2000/svg">
<g id="Frame">
<path id="Vector" d="M56 50H54V10C54 9.46957 53.7893 8.96086 53.4142 8.58579C53.0391 8.21071 52.5304 8 52 8H38C37.4696 8 36.9609 8.21071 36.5858 8.58579C36.2107 8.96086 36 9.46957 36 10V20H24C23.4696 20 22.9609 20.2107 22.5858 20.5858C22.2107 20.9609 22 21.4696 22 22V32H12C11.4696 32 10.9609 32.2107 10.5858 32.5858C10.2107 32.9609 10 33.4696 10 34V50H8C7.46957 50 6.96086 50.2107 6.58579 50.5858C6.21071 50.9609 6 51.4696 6 52C6 52.5304 6.21071 53.0391 6.58579 53.4142C6.96086 53.7893 7.46957 54 8 54H56C56.5304 54 57.0391 53.7893 57.4142 53.4142C57.7893 53.0391 58 52.5304 58 52C58 51.4696 57.7893 50.9609 57.4142 50.5858C57.0391 50.2107 56.5304 50 56 50ZM40 12H50V50H40V12ZM26 24H36V50H26V24ZM14 36H22V50H14V36Z" fill="#79716B"/>
</g>
</svg>
