<svg width="65" height="64" viewBox="0 0 65 64" fill="none" xmlns="http://www.w3.org/2000/svg">
<g id="Frame">
<path id="Vector" d="M62.4075 9.97253C62.3789 9.48324 62.1717 9.02148 61.8251 8.67492C61.4785 8.32835 61.0168 8.1211 60.5275 8.09253C47.5875 7.34253 37.1975 11.2775 32.7325 18.6475C29.7825 23.52 29.7875 29.4375 32.6925 35.0825C31.039 37.0509 29.8306 39.3535 29.15 41.8325L25.0825 37.75C27.0375 33.6675 26.9625 29.4125 24.8325 25.8775C21.5325 20.43 13.915 17.51 4.4575 18.065C3.96821 18.0936 3.50645 18.3008 3.15989 18.6474C2.81332 18.994 2.60607 19.4557 2.5775 19.945C2.02 29.4025 4.9425 37.02 10.39 40.32C12.1877 41.4183 14.2534 41.9996 16.36 42C18.4047 41.9748 20.4177 41.4904 22.25 40.5825L28.5 46.8325V54C28.5 54.5305 28.7107 55.0392 29.0858 55.4142C29.4609 55.7893 29.9696 56 30.5 56C31.0304 56 31.5391 55.7893 31.9142 55.4142C32.2893 55.0392 32.5 54.5305 32.5 54V46.6275C32.4911 43.4458 33.5739 40.3572 35.5675 37.8775C38.1399 39.2219 40.9928 39.9413 43.895 39.9775C46.7009 39.9866 49.4548 39.22 51.8525 37.7625C59.2225 33.3025 63.1675 22.9125 62.4075 9.97253ZM12.4525 36.9C8.6175 34.5775 6.4475 29.08 6.5 22C13.58 21.94 19.0775 24.1175 21.4 27.9525C22.6125 29.9525 22.81 32.285 22.015 34.6875L15.9125 28.585C15.5344 28.2258 15.0309 28.0285 14.5094 28.0352C13.9878 28.0418 13.4895 28.252 13.1207 28.6208C12.7519 28.9896 12.5418 29.4879 12.5351 30.0094C12.5284 30.5309 12.7258 31.0344 13.085 31.4125L19.1875 37.515C16.785 38.31 14.455 38.1125 12.4525 36.9ZM49.78 34.345C46.43 36.3725 42.4925 36.5275 38.4925 34.845L51.915 21.42C52.2742 21.0419 52.4716 20.5384 52.4649 20.0169C52.4582 19.4954 52.2481 18.9971 51.8793 18.6283C51.5105 18.2595 51.0122 18.0493 50.4906 18.0427C49.9691 18.036 49.4656 18.2333 49.0875 18.5925L35.6625 32C33.9725 28 34.125 24.06 36.1625 20.7125C39.6475 14.9625 47.9125 11.7575 58.495 12.005C58.735 22.585 55.535 30.86 49.78 34.345Z" fill="#79716B"/>
</g>
</svg>
