<svg width="65" height="64" viewBox="0 0 65 64" fill="none" xmlns="http://www.w3.org/2000/svg">
<g id="Frame">
<path id="Vector" d="M58.23 53C54.4225 46.4175 48.555 41.6975 41.7075 39.46C45.0946 37.4437 47.7261 34.3712 49.198 30.7145C50.6699 27.0578 50.9008 23.019 49.8551 19.2184C48.8095 15.4178 46.5452 12.0655 43.4099 9.67634C40.2747 7.28717 36.4418 5.99323 32.5 5.99323C28.5582 5.99323 24.7253 7.28717 21.5901 9.67634C18.4548 12.0655 16.1905 15.4178 15.1448 19.2184C14.0992 23.019 14.3301 27.0578 15.802 30.7145C17.2739 34.3712 19.9054 37.4437 23.2925 39.46C16.445 41.695 10.5775 46.415 6.77 53C6.63037 53.2277 6.53776 53.481 6.49762 53.7451C6.45748 54.0091 6.47064 54.2785 6.53631 54.5374C6.60198 54.7963 6.71883 55.0394 6.87998 55.2524C7.04112 55.4653 7.24329 55.6439 7.47456 55.7775C7.70583 55.9111 7.96151 55.997 8.22652 56.0301C8.49153 56.0633 8.76049 56.0431 9.01755 55.9706C9.27461 55.8981 9.51455 55.7749 9.72322 55.6082C9.93188 55.4415 10.105 55.2347 10.2325 55C14.9425 46.86 23.2675 42 32.5 42C41.7325 42 50.0575 46.86 54.7675 55C54.8949 55.2347 55.0681 55.4415 55.2768 55.6082C55.4854 55.7749 55.7254 55.8981 55.9824 55.9706C56.2395 56.0431 56.5085 56.0633 56.7735 56.0301C57.0385 55.997 57.2942 55.9111 57.5254 55.7775C57.7567 55.6439 57.9589 55.4653 58.12 55.2524C58.2812 55.0394 58.398 54.7963 58.4637 54.5374C58.5294 54.2785 58.5425 54.0091 58.5024 53.7451C58.4622 53.481 58.3696 53.2277 58.23 53ZM18.5 24C18.5 21.2311 19.3211 18.5243 20.8594 16.222C22.3978 13.9198 24.5843 12.1253 27.1424 11.0657C29.7006 10.0061 32.5155 9.72884 35.2313 10.269C37.947 10.8092 40.4416 12.1426 42.3995 14.1005C44.3574 16.0585 45.6908 18.553 46.231 21.2688C46.7712 23.9845 46.4939 26.7994 45.4343 29.3576C44.3747 31.9158 42.5803 34.1023 40.278 35.6406C37.9757 37.1789 35.2689 38 32.5 38C28.7882 37.9961 25.2295 36.5198 22.6049 33.8951C19.9802 31.2705 18.504 27.7118 18.5 24Z" fill="#79716B"/>
</g>
</svg>
