<svg width="65" height="64" viewBox="0 0 65 64" fill="none" xmlns="http://www.w3.org/2000/svg">
<g id="Frame">
<path id="Vector" d="M53.915 20.585L39.915 6.585C39.7291 6.39933 39.5085 6.2521 39.2657 6.15173C39.0229 6.05135 38.7627 5.99979 38.5 6H14.5C13.4391 6 12.4217 6.42143 11.6716 7.17157C10.9214 7.92172 10.5 8.93913 10.5 10V54C10.5 55.0609 10.9214 56.0783 11.6716 56.8284C12.4217 57.5786 13.4391 58 14.5 58H50.5C51.5609 58 52.5783 57.5786 53.3284 56.8284C54.0786 56.0783 54.5 55.0609 54.5 54V22C54.5002 21.7373 54.4487 21.4771 54.3483 21.2343C54.2479 20.9915 54.1007 20.7709 53.915 20.585ZM40.5 12.8275L47.6725 20H40.5V12.8275ZM50.5 54H14.5V10H36.5V22C36.5 22.5304 36.7107 23.0391 37.0858 23.4142C37.4609 23.7893 37.9696 24 38.5 24H50.5V54Z" fill="#79716B"/>
</g>
</svg>
