<svg width="18" height="18" viewBox="0 0 18 18" fill="none" xmlns="http://www.w3.org/2000/svg">
<g clip-path="url(#clip0_976_15938)">
<path d="M3.07351 -0.0146811C3.12687 -0.0148281 3.18022 -0.0150209 3.23358 -0.0152549C3.37897 -0.0157597 3.52436 -0.0156148 3.66975 -0.0153545C3.82703 -0.0151874 3.98432 -0.0156286 4.1416 -0.0159879C4.44927 -0.0165909 4.75693 -0.0166219 5.0646 -0.0164374C5.31481 -0.016295 5.56502 -0.0163464 5.81524 -0.016534C5.85092 -0.0165604 5.8866 -0.0165867 5.92337 -0.0166138C5.99587 -0.0166676 6.06837 -0.0167217 6.14087 -0.016776C6.82 -0.0172581 7.49913 -0.0170677 8.17827 -0.016664C8.79872 -0.016315 9.41917 -0.0167697 10.0396 -0.0176109C10.6777 -0.0184694 11.3157 -0.018806 11.9537 -0.0185724C12.3115 -0.0184498 12.6694 -0.0185266 13.0272 -0.0191437C13.3318 -0.0196625 13.6364 -0.019682 13.9411 -0.0190709C14.0963 -0.0187727 14.2515 -0.0186938 14.4067 -0.0192344C14.5492 -0.0197244 14.6916 -0.0195497 14.8341 -0.0188745C14.8853 -0.0187432 14.9364 -0.0188422 14.9876 -0.0192124C15.4496 -0.0223135 15.9123 0.0487939 16.3234 0.271409C16.3466 0.28354 16.3697 0.295672 16.3936 0.30817C17.1024 0.688687 17.6506 1.29992 17.8945 2.07317C17.9908 2.40863 18.0151 2.72502 18.0136 3.07253C18.0137 3.12589 18.0139 3.17925 18.0141 3.23261C18.0146 3.378 18.0145 3.52338 18.0142 3.66877C18.0141 3.82606 18.0145 3.98334 18.0149 4.14063C18.0155 4.44829 18.0155 4.75595 18.0153 5.06362C18.0152 5.31383 18.0152 5.56405 18.0154 5.81426C18.0154 5.84994 18.0155 5.88563 18.0155 5.92239C18.0155 5.99489 18.0156 6.06739 18.0156 6.13989C18.0161 6.81902 18.0159 7.49816 18.0155 8.17729C18.0152 8.79774 18.0156 9.4182 18.0165 10.0386C18.0173 10.6767 18.0177 11.3147 18.0174 11.9527C18.0173 12.3106 18.0174 12.6684 18.018 13.0262C18.0185 13.3308 18.0186 13.6355 18.0179 13.9401C18.0176 14.0953 18.0176 14.2505 18.0181 14.4058C18.0186 14.5482 18.0184 14.6907 18.0177 14.8331C18.0176 14.8843 18.0177 14.9355 18.0181 14.9866C18.0212 15.4486 17.9501 15.9113 17.7275 16.3224C17.7153 16.3456 17.7032 16.3688 17.6907 16.3926C17.3102 17.1014 16.699 17.6496 15.9257 17.8935C15.5902 17.9898 15.2739 18.0142 14.9263 18.0126C14.873 18.0127 14.8196 18.0129 14.7663 18.0132C14.6209 18.0137 14.4755 18.0135 14.3301 18.0133C14.1728 18.0131 14.0155 18.0135 13.8582 18.0139C13.5506 18.0145 13.2429 18.0145 12.9353 18.0143C12.685 18.0142 12.4348 18.0142 12.1846 18.0144C12.1311 18.0145 12.1311 18.0145 12.0765 18.0145C12.004 18.0146 11.9315 18.0146 11.859 18.0147C11.1799 18.0152 10.5007 18.015 9.82158 18.0146C9.20113 18.0142 8.58068 18.0147 7.96022 18.0155C7.32219 18.0164 6.68416 18.0167 6.04613 18.0165C5.6883 18.0163 5.33048 18.0164 4.97265 18.017C4.66803 18.0176 4.3634 18.0176 4.05878 18.017C3.90356 18.0167 3.74834 18.0166 3.59312 18.0171C3.45066 18.0176 3.30821 18.0174 3.16575 18.0168C3.11458 18.0166 3.06341 18.0167 3.01224 18.0171C2.55025 18.0202 2.08759 17.9491 1.67644 17.7265C1.65327 17.7144 1.63011 17.7022 1.60624 17.6897C0.897466 17.3092 0.349265 16.698 0.105394 15.9247C0.00906875 15.5893 -0.0152814 15.2729 -0.0137046 14.9254C-0.0138516 14.872 -0.0140443 14.8187 -0.0142783 14.7653C-0.0147831 14.6199 -0.0146382 14.4745 -0.0143778 14.3291C-0.0142107 14.1718 -0.014652 14.0146 -0.0150113 13.8573C-0.0156143 13.5496 -0.0156454 13.2419 -0.0154609 12.9343C-0.0153185 12.6841 -0.0153698 12.4338 -0.0155574 12.1836C-0.0155837 12.148 -0.0156102 12.1123 -0.0156374 12.0755C-0.0156912 12.003 -0.015745 11.9305 -0.0157994 11.858C-0.0162814 11.1789 -0.0160912 10.4997 -0.0156875 9.82061C-0.0153384 9.20015 -0.0157931 8.5797 -0.0166343 7.95925C-0.0174928 7.32121 -0.0178295 6.68318 -0.0175959 6.04515C-0.0174733 5.68732 -0.0175502 5.3295 -0.0181672 4.97167C-0.018686 4.66705 -0.0187053 4.36243 -0.0180943 4.0578C-0.017796 3.90258 -0.0177173 3.74737 -0.0182579 3.59214C-0.0187479 3.44968 -0.0185732 3.30723 -0.0178979 3.16477C-0.0177667 3.1136 -0.0178657 3.06243 -0.0182359 3.01127C-0.021337 2.54928 0.0497705 2.08661 0.272386 1.67546C0.284517 1.6523 0.296648 1.62913 0.309147 1.60526C0.689664 0.896489 1.30089 0.348289 2.07414 0.104417C2.40961 0.00809219 2.726 -0.0162579 3.07351 -0.0146811ZM1.93366 1.96344C1.55633 2.36511 1.5009 2.81927 1.50248 3.34895C1.50237 3.39968 1.50224 3.4504 1.50207 3.50113C1.50171 3.63989 1.50179 3.77865 1.50194 3.91742C1.50202 4.06732 1.50171 4.21723 1.50144 4.36713C1.501 4.66057 1.50093 4.95401 1.50101 5.24746C1.50108 5.48604 1.50102 5.72463 1.50087 5.96322C1.50084 5.9972 1.50082 6.03119 1.5008 6.0662C1.50076 6.13525 1.50072 6.2043 1.50067 6.27334C1.50029 6.92058 1.50037 7.56782 1.50058 8.21506C1.50076 8.80675 1.50037 9.39843 1.4997 9.99012C1.49902 10.5981 1.49873 11.2061 1.49886 11.8141C1.49893 12.1553 1.49884 12.4964 1.49834 12.8376C1.49792 13.128 1.49788 13.4185 1.4983 13.7089C1.49851 13.857 1.49855 14.0051 1.49812 14.1532C1.49774 14.289 1.49785 14.4247 1.49834 14.5605C1.49844 14.6094 1.49836 14.6583 1.49807 14.7072C1.49529 15.2244 1.57908 15.651 1.93723 16.0404C2.80063 16.8564 4.18805 16.4872 5.23821 16.4872C5.23821 11.545 5.23821 6.6027 5.23821 1.51067C3.48966 1.32772 3.48966 1.32772 1.93366 1.96344ZM6.74992 1.51067C6.74992 6.45293 6.74992 11.3952 6.74992 16.4872C8.12761 16.4894 9.5053 16.4916 10.9247 16.4938C11.577 16.4953 11.577 16.4953 12.2424 16.4967C12.6325 16.4971 12.6325 16.4971 13.0227 16.4973C13.1963 16.4974 13.3699 16.4978 13.5436 16.4984C13.7653 16.4991 13.987 16.4993 14.2087 16.4992C14.2899 16.4992 14.3711 16.4994 14.4523 16.4998C15.0593 16.5027 15.5696 16.4956 16.0413 16.0616C16.4332 15.647 16.499 15.1998 16.4974 14.6489C16.4975 14.5982 16.4976 14.5475 16.4978 14.4968C16.4981 14.358 16.4981 14.2192 16.4979 14.0805C16.4978 13.9306 16.4981 13.7807 16.4984 13.6308C16.4989 13.3373 16.4989 13.0439 16.4988 12.7504C16.4988 12.5119 16.4988 12.2733 16.499 12.0347C16.499 11.9837 16.499 11.9837 16.499 11.9317C16.4991 11.8626 16.4991 11.7936 16.4992 11.7246C16.4996 11.0773 16.4995 10.4301 16.4993 9.78283C16.4991 9.19115 16.4995 8.59946 16.5002 8.00778C16.5008 7.39978 16.5011 6.79179 16.501 6.1838C16.5009 5.84264 16.501 5.50148 16.5015 5.16032C16.5019 4.86986 16.502 4.57941 16.5015 4.28896C16.5013 4.14088 16.5013 3.9928 16.5017 3.84472C16.5021 3.70894 16.502 3.57317 16.5015 3.43739C16.5014 3.38849 16.5015 3.33959 16.5018 3.29069C16.5046 2.77352 16.4208 2.34691 16.0626 1.95754C15.6948 1.60992 15.2902 1.49902 14.7952 1.50221C14.7607 1.50215 14.7262 1.50209 14.6907 1.50203C14.5755 1.50191 14.4603 1.5023 14.345 1.50268C14.2609 1.50271 14.1767 1.5027 14.0925 1.50266C13.8676 1.50264 13.6426 1.50305 13.4176 1.50355C13.2063 1.50395 12.9951 1.50397 12.7838 1.50402C12.1663 1.50438 11.5488 1.50537 10.9313 1.50627C8.86153 1.50845 8.86153 1.50845 6.74992 1.51067Z" fill="#292524"/>
<path d="M13.2192 6.11652C13.3738 6.25332 13.4892 6.40698 13.5135 6.61475C13.5143 6.65627 13.5151 6.69778 13.5159 6.74055C13.518 6.80227 13.518 6.80227 13.5201 6.86524C13.4684 7.20811 13.1742 7.44109 12.9384 7.67329C12.9008 7.7107 12.8632 7.74813 12.8257 7.78558C12.7275 7.88338 12.629 7.98085 12.5304 8.07825C12.4295 8.17799 12.329 8.27804 12.2285 8.37806C12.0317 8.57373 11.8346 8.76906 11.6372 8.96418C11.6914 9.09345 11.7693 9.17453 11.8687 9.27233C11.8932 9.29654 11.8932 9.29654 11.9181 9.32124C11.9534 9.35615 11.9888 9.39099 12.0242 9.42574C12.0804 9.48087 12.1364 9.53622 12.1923 9.59165C12.3512 9.74915 12.5105 9.9062 12.6699 10.0631C12.7676 10.1593 12.865 10.2557 12.9622 10.3522C12.9992 10.3888 13.0363 10.4254 13.0735 10.4618C13.1257 10.5128 13.1775 10.5642 13.2293 10.6157C13.2736 10.6593 13.2736 10.6593 13.3187 10.7038C13.5018 10.9162 13.5216 11.1034 13.5148 11.3754C13.4858 11.6188 13.369 11.7489 13.1819 11.8975C13.0068 12.0248 12.8356 12.0428 12.6216 12.0228C12.1739 11.9145 11.8253 11.4445 11.5069 11.1286C11.4845 11.1065 11.4622 11.0843 11.4392 11.0615C11.3212 10.9445 11.2034 10.8274 11.0857 10.7101C10.9889 10.6139 10.8919 10.5178 10.7947 10.422C10.6763 10.3053 10.5583 10.1882 10.4406 10.0708C10.3961 10.0265 10.3514 9.98232 10.3065 9.93832C9.74194 9.38381 9.74194 9.38381 9.7168 8.99934C9.74811 8.53712 10.1226 8.23927 10.4306 7.93504C10.4818 7.88388 10.533 7.8327 10.5842 7.78149C10.6911 7.67466 10.7982 7.56815 10.9056 7.46185C11.043 7.32592 11.1797 7.18937 11.3162 7.05261C11.4216 6.94702 11.5274 6.84171 11.6332 6.73647C11.6837 6.68622 11.7341 6.6359 11.7845 6.58552C11.855 6.5151 11.9258 6.44504 11.9967 6.37506C12.0173 6.35442 12.0378 6.33379 12.0589 6.31252C12.4037 5.9748 12.7802 5.86844 13.2192 6.11652Z" fill="#292524"/>
</g>
<defs>
<clipPath id="clip0_976_15938">
<rect width="18" height="18" fill="white"/>
</clipPath>
</defs>
</svg>
