<svg width="18" height="18" viewBox="0 0 18 18" fill="none" xmlns="http://www.w3.org/2000/svg">
<g clip-path="url(#clip0_1221_64233)">
<g clip-path="url(#clip1_1221_64233)">
<path d="M3.07448 -0.0137045C3.12784 -0.0138516 3.1812 -0.0140443 3.23456 -0.0142783C3.37995 -0.0147831 3.52533 -0.0146383 3.67073 -0.0143779C3.82801 -0.0142108 3.9853 -0.014652 4.14258 -0.0150113C4.45024 -0.0156143 4.75791 -0.0156454 5.06557 -0.0154609C5.31579 -0.0153185 5.566 -0.0153699 5.81622 -0.0155575C5.8519 -0.0155838 5.88758 -0.0156101 5.92434 -0.0156372C5.99684 -0.0156911 6.06934 -0.0157451 6.14184 -0.0157995C6.82098 -0.0162815 7.50011 -0.0160911 8.17924 -0.0156875C8.7997 -0.0153384 9.42015 -0.0157932 10.0406 -0.0166344C10.6786 -0.0174929 11.3167 -0.0178294 11.9547 -0.0175958C12.3125 -0.0174733 12.6704 -0.0175501 13.0282 -0.0181671C13.3328 -0.018686 13.6374 -0.0187054 13.942 -0.0180943C14.0973 -0.0177961 14.2525 -0.0177173 14.4077 -0.0182579C14.5502 -0.0187479 14.6926 -0.0185732 14.8351 -0.0178979C14.8862 -0.0177667 14.9374 -0.0178656 14.9886 -0.0182358C15.4506 -0.0213369 15.9132 0.0497705 16.3244 0.272386C16.3476 0.284517 16.3707 0.296648 16.3946 0.309147C17.1034 0.689664 17.6516 1.30089 17.8954 2.07414C17.9918 2.40961 18.0161 2.726 18.0145 3.07351C18.0147 3.12687 18.0149 3.18022 18.0151 3.23358C18.0156 3.37897 18.0155 3.52436 18.0152 3.66975C18.015 3.82704 18.0155 3.98432 18.0158 4.1416C18.0164 4.44927 18.0165 4.75693 18.0163 5.0646C18.0161 5.31481 18.0162 5.56502 18.0164 5.81524C18.0164 5.85092 18.0164 5.8866 18.0165 5.92337C18.0165 5.99587 18.0166 6.06837 18.0166 6.14087C18.0171 6.82 18.0169 7.49913 18.0165 8.17827C18.0162 8.79872 18.0166 9.41917 18.0175 10.0396C18.0183 10.6777 18.0187 11.3157 18.0184 11.9537C18.0183 12.3116 18.0184 12.6694 18.019 13.0272C18.0195 13.3318 18.0195 13.6364 18.0189 13.9411C18.0186 14.0963 18.0185 14.2515 18.0191 14.4067C18.0196 14.5492 18.0194 14.6916 18.0187 14.8341C18.0186 14.8853 18.0187 14.9364 18.0191 14.9876C18.0222 15.4496 17.9511 15.9123 17.7284 16.3234C17.7163 16.3466 17.7042 16.3697 17.6917 16.3936C17.3112 17.1024 16.6999 17.6506 15.9267 17.8945C15.5912 17.9908 15.2748 18.0151 14.9273 18.0136C14.874 18.0137 14.8206 18.0139 14.7672 18.0141C14.6219 18.0146 14.4765 18.0145 14.3311 18.0142C14.1738 18.0141 14.0165 18.0145 13.8592 18.0149C13.5516 18.0155 13.2439 18.0155 12.9362 18.0153C12.686 18.0152 12.4358 18.0152 12.1856 18.0154C12.1321 18.0154 12.1321 18.0154 12.0775 18.0155C12.005 18.0155 11.9325 18.0156 11.86 18.0156C11.1808 18.0161 10.5017 18.0159 9.82256 18.0155C9.20211 18.0152 8.58165 18.0156 7.9612 18.0165C7.32317 18.0173 6.68514 18.0177 6.0471 18.0174C5.68928 18.0173 5.33145 18.0174 4.97363 18.018C4.669 18.0185 4.36438 18.0186 4.05976 18.0179C3.90453 18.0176 3.74932 18.0176 3.5941 18.0181C3.45163 18.0186 3.30919 18.0184 3.16673 18.0177C3.11556 18.0176 3.06439 18.0177 3.01322 18.0181C2.55123 18.0212 2.08857 17.9501 1.67742 17.7275C1.65425 17.7153 1.63108 17.7032 1.60721 17.6907C0.898442 17.3102 0.350242 16.699 0.10637 15.9257C0.0100453 15.5902 -0.0143048 15.2739 -0.012728 14.9263C-0.012875 14.873 -0.0130677 14.8196 -0.0133017 14.7663C-0.0138066 14.6209 -0.0136616 14.4755 -0.0134012 14.3301C-0.0132341 14.1728 -0.0136755 14.0155 -0.0140348 13.8582C-0.0146378 13.5506 -0.0146688 13.2429 -0.0144843 12.9353C-0.0143419 12.685 -0.0143932 12.4348 -0.0145809 12.1846C-0.0146072 12.1489 -0.0146337 12.1132 -0.0146608 12.0765C-0.0147146 12.004 -0.0147685 11.9315 -0.0148228 11.859C-0.0153049 11.1799 -0.0151146 10.5007 -0.0147109 9.82158C-0.0143619 9.20113 -0.0148165 8.58068 -0.0156578 7.96022C-0.0165163 7.32219 -0.0168529 6.68416 -0.0166193 6.04613C-0.0164968 5.6883 -0.0165736 5.33048 -0.0171906 4.97265C-0.0177095 4.66803 -0.0177288 4.3634 -0.0171177 4.05878C-0.0168195 3.90356 -0.0167407 3.74834 -0.0172813 3.59312C-0.0177713 3.45066 -0.0175966 3.30821 -0.0169214 3.16575C-0.0167901 3.11458 -0.0168891 3.06341 -0.0172593 3.01224C-0.0203604 2.55025 0.050747 2.08759 0.273362 1.67644C0.285494 1.65327 0.297625 1.63011 0.310124 1.60624C0.69064 0.897466 1.30187 0.349265 2.07512 0.105394C2.41058 0.00906875 2.72697 -0.0152814 3.07448 -0.0137045ZM1.93463 1.96442C1.55731 2.36608 1.50188 2.82024 1.50346 3.34993C1.50335 3.40065 1.50321 3.45138 1.50305 3.50211C1.50269 3.64087 1.50276 3.77963 1.50291 3.9184C1.503 4.0683 1.50268 4.2182 1.50242 4.36811C1.50197 4.66155 1.50191 4.95499 1.50199 5.24843C1.50205 5.48702 1.50199 5.72561 1.50184 5.96419C1.50182 5.99818 1.5018 6.03217 1.50178 6.06718C1.50174 6.13623 1.50169 6.20527 1.50165 6.27432C1.50127 6.92156 1.50134 7.5688 1.50156 8.21604C1.50174 8.80772 1.50134 9.39941 1.50068 9.9911C1.49999 10.5991 1.49971 11.2071 1.49984 11.8151C1.4999 12.1562 1.49982 12.4974 1.49932 12.8386C1.4989 13.129 1.49885 13.4195 1.49928 13.7099C1.49948 13.858 1.49952 14.0061 1.4991 14.1542C1.49872 14.2899 1.49883 14.4257 1.49932 14.5615C1.49941 14.6104 1.49933 14.6593 1.49905 14.7082C1.49627 15.2254 1.58006 15.652 1.9382 16.0413C2.80161 16.8574 4.18903 16.4882 5.23918 16.4882C5.23918 11.5459 5.23918 6.60367 5.23918 1.51164C3.49063 1.3287 3.49063 1.3287 1.93463 1.96442ZM6.7509 1.51164C6.7509 6.45391 6.7509 11.3962 6.7509 16.4882C8.12859 16.4904 9.50627 16.4926 10.9257 16.4948C11.5779 16.4962 11.5779 16.4962 12.2433 16.4977C12.6335 16.4981 12.6335 16.4981 13.0237 16.4983C13.1973 16.4984 13.3709 16.4988 13.5445 16.4993C13.7663 16.5001 13.988 16.5003 14.2097 16.5001C14.2909 16.5002 14.3721 16.5004 14.4533 16.5008C15.0603 16.5037 15.5706 16.4965 16.0423 16.0626C16.4342 15.648 16.5 15.2008 16.4983 14.6499C16.4985 14.5992 16.4986 14.5485 16.4988 14.4977C16.4991 14.359 16.499 14.2202 16.4989 14.0815C16.4988 13.9316 16.4991 13.7816 16.4994 13.6317C16.4998 13.3383 16.4999 13.0449 16.4998 12.7514C16.4998 12.5128 16.4998 12.2742 16.5 12.0357C16.5 11.9847 16.5 11.9847 16.5 11.9327C16.5001 11.8636 16.5001 11.7946 16.5002 11.7255C16.5005 11.0783 16.5005 10.4311 16.5002 9.78381C16.5001 9.19213 16.5005 8.60044 16.5011 8.00875C16.5018 7.40076 16.5021 6.79277 16.502 6.18477C16.5019 5.84361 16.502 5.50245 16.5025 5.16129C16.5029 4.87084 16.503 4.58039 16.5025 4.28994C16.5023 4.14185 16.5023 3.99378 16.5027 3.84569C16.5031 3.70991 16.503 3.57414 16.5025 3.43836C16.5024 3.38946 16.5025 3.34056 16.5028 3.29166C16.5055 2.7745 16.4217 2.34788 16.0636 1.95851C15.6958 1.6109 15.2912 1.5 14.7962 1.50319C14.7617 1.50313 14.7272 1.50307 14.6917 1.50301C14.5764 1.50289 14.4612 1.50328 14.346 1.50366C14.2619 1.50368 14.1777 1.50367 14.0935 1.50364C13.8685 1.50362 13.6436 1.50403 13.4186 1.50452C13.2073 1.50492 12.996 1.50494 12.7848 1.50499C12.1673 1.50536 11.5498 1.50634 10.9323 1.50725C8.86251 1.50942 8.86251 1.50942 6.7509 1.51164Z" fill="#F5F5F4"/>
<path d="M13.2192 6.1175C13.3738 6.2543 13.4892 6.40796 13.5135 6.61573C13.5143 6.65724 13.5151 6.69875 13.5159 6.74152C13.518 6.80325 13.518 6.80325 13.5201 6.86622C13.4684 7.20908 13.1742 7.44207 12.9384 7.67426C12.9008 7.71167 12.8632 7.7491 12.8257 7.78656C12.7275 7.88435 12.629 7.98182 12.5304 8.07923C12.4295 8.17897 12.329 8.27902 12.2285 8.37904C12.0317 8.57471 11.8346 8.77004 11.6372 8.96516C11.6914 9.09443 11.7693 9.17551 11.8687 9.27331C11.8932 9.29752 11.8932 9.29752 11.9181 9.32222C11.9534 9.35713 11.9888 9.39196 12.0242 9.42672C12.0804 9.48184 12.1364 9.5372 12.1923 9.59262C12.3512 9.75012 12.5105 9.90718 12.6699 10.0641C12.7676 10.1602 12.865 10.2566 12.9622 10.3532C12.9992 10.3898 13.0363 10.4263 13.0735 10.4628C13.1257 10.5138 13.1775 10.5652 13.2293 10.6167C13.2736 10.6603 13.2736 10.6603 13.3187 10.7048C13.5018 10.9172 13.5216 11.1044 13.5148 11.3764C13.4858 11.6198 13.369 11.7499 13.1819 11.8985C13.0068 12.0258 12.8356 12.0437 12.6216 12.0238C12.1739 11.9154 11.8253 11.4455 11.5069 11.1296C11.4845 11.1074 11.4622 11.0853 11.4392 11.0625C11.3212 10.9455 11.2034 10.8283 11.0857 10.7111C10.9889 10.6148 10.8919 10.5188 10.7947 10.423C10.6763 10.3063 10.5583 10.1892 10.4406 10.0718C10.3961 10.0275 10.3514 9.9833 10.3065 9.93929C9.74194 9.38479 9.74194 9.38479 9.7168 9.00031C9.74811 8.5381 10.1226 8.24025 10.4306 7.93601C10.4818 7.88486 10.533 7.83368 10.5842 7.78246C10.6911 7.67564 10.7982 7.56912 10.9056 7.46283C11.043 7.3269 11.1797 7.19035 11.3162 7.05358C11.4216 6.948 11.5274 6.84268 11.6332 6.73745C11.6837 6.6872 11.7341 6.63688 11.7845 6.58649C11.855 6.51608 11.9258 6.44601 11.9967 6.37604C12.0173 6.3554 12.0378 6.33476 12.0589 6.3135C12.4037 5.97578 12.7802 5.86941 13.2192 6.1175Z" fill="#F5F5F4"/>
</g>
</g>
<defs>
<clipPath id="clip0_1221_64233">
<rect width="18" height="18" fill="white"/>
</clipPath>
<clipPath id="clip1_1221_64233">
<rect width="18" height="18" fill="white"/>
</clipPath>
</defs>
</svg>
