<svg width="40" height="40" viewBox="0 0 40 40" fill="none" xmlns="http://www.w3.org/2000/svg">
<rect width="40" height="40" rx="8.64865" fill="#055E40"/>
<path d="M18.3631 31.5413L21.7749 18.642C21.9778 17.8751 22.0792 17.4916 21.8673 17.2109C21.6554 16.9301 21.2815 16.923 20.5337 16.9088C17.1564 16.8446 16.0492 18.0055 15.9321 18.6807L12.3641 32.3259C12.1573 33.1168 12.0539 33.5122 12.2791 33.7954C12.5042 34.0786 12.8868 34.0677 13.652 34.0459H13.6521C17.0149 33.9502 18.1506 32.6112 18.3155 31.7733C18.3407 31.6452 18.3533 31.5812 18.3559 31.5699C18.3585 31.5586 18.3601 31.5528 18.3631 31.5413Z" fill="white"/>
<path d="M27.4487 24.0429L29.0012 18.6049L29.0012 18.6049C29.2226 17.8295 29.3333 17.4417 29.1149 17.1537C28.8964 16.8656 28.5225 16.8675 27.7746 16.8712C24.4839 16.8878 23.2392 18.3368 23.0304 19.1693L21.36 24.979C21.144 25.7302 21.036 26.1059 21.2488 26.393C21.4617 26.6802 21.819 26.6855 22.5335 26.6962C25.8466 26.746 27.1877 25.0328 27.4487 24.0429Z" fill="white"/>
<path d="M15.0666 15.8565L27.6879 15.9623L27.6879 15.9623C28.4883 15.969 28.8886 15.9723 29.1081 15.6876C29.3275 15.4029 29.2301 15.0448 29.0352 14.3284C28.1687 11.1431 26.4434 10.3137 25.584 10.3274L12.5726 10.2034C11.7972 10.196 11.4095 10.1923 11.1897 10.4712C10.9698 10.7501 11.0559 11.094 11.228 11.7817C12.0352 15.0061 14.0414 15.8606 15.0666 15.8565Z" fill="#FDB022"/>
</svg>
