<svg width="80" height="80" viewBox="0 0 80 80" fill="none" xmlns="http://www.w3.org/2000/svg">
<g id="icons">
<g id="XMLID_262_">
<path id="XMLID_263_" d="M22.75 19.25H57.125V34.75H22.75V19.25Z" fill="#15A260"/>
<path id="XMLID_261_" d="M39.875 32.25C42.8435 32.25 45.25 29.8435 45.25 26.875C45.25 23.9065 42.8435 21.5 39.875 21.5C36.9065 21.5 34.5 23.9065 34.5 26.875C34.5 29.8435 36.9065 32.25 39.875 32.25Z" fill="#0D623A"/>
<path id="XMLID_260_" d="M26.375 26.875H32.25" stroke="white" stroke-miterlimit="10"/>
<path id="XMLID_259_" d="M47.375 26.875H53.25" stroke="white" stroke-miterlimit="10"/>
<g id="XMLID_254_">
<path id="XMLID_255_" d="M39.625 30V29.5C39 29.375 38.375 29.125 37.75 28.625L38.25 28C38.625 28.375 39.125 28.625 39.5 28.625V27.125C38.875 27 38.5 26.75 38.25 26.625C38 26.375 37.875 26.125 37.875 25.625C37.875 25.25 38 24.875 38.375 24.5C38.625 24.25 39.125 24.125 39.5 24V23.75H40V24.125C40.5 24.125 41.125 24.375 41.625 24.75L41.25 25.5C40.875 25.25 40.5 25.125 40.125 25.125V26.5C40.75 26.625 41.125 26.875 41.375 27C41.625 27.25 41.75 27.625 41.75 28C41.75 28.5 41.625 28.75 41.25 29.125C41 29.375 40.5 29.5 40 29.625V30H39.625ZM39.125 25.125C39 25.25 38.875 25.375 38.875 25.5C38.875 25.625 38.875 25.75 39 25.875C39.125 26 39.25 26.125 39.625 26.125V24.875C39.375 25 39.25 25.125 39.125 25.125ZM40.75 28.5C40.875 28.375 41 28.25 41 28.125C41 28 41 27.75 40.875 27.75C40.75 27.625 40.5 27.5 40.25 27.5V28.75C40.375 28.625 40.625 28.625 40.75 28.5Z" fill="white"/>
</g>
<g id="XMLID_975_">
<path id="XMLID_979_" d="M46 41.4987L51.5 35.6237C52.875 33.8737 55.625 35.6237 54.125 37.3737L49.75 43.4987H51.875L57 37.9987C57 37.9987 57.5 34.6237 57.625 34.1237L57.75 29.7487C57.375 28.9987 57.75 28.1237 58.5 27.7487C59.25 27.3737 60.125 27.7487 60.5 28.4987V33.3737C60.625 33.7487 60.625 39.6237 60.625 39.6237L54.5 52.3737H45.125V43.2487C45.25 42.7487 45.5 41.9987 46 41.4987Z" fill="white"/>
<path id="XMLID_978_" d="M46 41.4987L51.5 35.6237C52.875 33.8737 55.625 35.6237 54.125 37.3737L49.75 43.4987H51.875L57.25 37.7487C57.25 37.7487 57.625 34.2487 57.75 33.8737L57.625 29.4987C57.75 28.6237 57.625 27.8737 58.375 27.4987C59.125 27.1237 60 27.4987 60.375 28.2487L60.625 33.3737C60.75 33.7487 60.75 39.6237 60.75 39.6237L54.625 52.3737H45.25V43.2487C45.25 42.7487 45.5 41.9987 46 41.4987Z" stroke="#79716B" stroke-miterlimit="10" stroke-linecap="round"/>
<path id="XMLID_977_" d="M41.875 53H56.5V65.75H41.875V53Z" fill="#E5A633"/>
<path id="XMLID_976_" d="M41.875 53H45.875V65.75H41.875V53Z" fill="#F5DDB0"/>
</g>
<g id="XMLID_714_">
<path id="XMLID_718_" d="M34 41.4987L28.5 35.6237C27.125 33.8737 24.375 35.6237 25.875 37.3737L30.25 43.4987H28.125L23 37.9987C23 37.9987 22.5 34.6237 22.375 34.1237L22.25 29.7487C22.625 28.9987 22.25 28.1237 21.5 27.7487C20.75 27.3737 19.875 27.7487 19.5 28.4987V33.3737C19.375 33.7487 19.375 39.6237 19.375 39.6237L25.5 52.3737H34.875V43.2487C34.75 42.7487 34.5 41.9987 34 41.4987Z" fill="white"/>
<path id="XMLID_717_" d="M34 41.4987L28.5 35.6237C27.125 33.8737 24.375 35.6237 25.875 37.3737L30.25 43.4987H28.125L22.75 37.7487C22.75 37.7487 22.375 34.2487 22.25 33.8737L22.375 29.4987C22.25 28.6237 22.375 27.8737 21.625 27.4987C20.875 27.1237 20 27.4987 19.625 28.2487L19.375 33.3737C19.25 33.7487 19.25 39.6237 19.25 39.6237L25.375 52.3737H34.75V43.2487C34.75 42.7487 34.5 41.9987 34 41.4987Z" stroke="#79716B" stroke-miterlimit="10" stroke-linecap="round"/>
<path id="XMLID_716_" d="M23.375 53H38V65.75H23.375V53Z" fill="#E5A633"/>
<path id="XMLID_715_" d="M34.125 53H38.125V65.75H34.125V53Z" fill="#F5DDB0"/>
</g>
<path id="XMLID_719_" d="M39.625 14.25V17" stroke="#79716B" stroke-miterlimit="10"/>
<path id="XMLID_713_" d="M43 14.625L42.25 17.375" stroke="#79716B" stroke-miterlimit="10"/>
<path id="XMLID_720_" d="M46 16L44.625 18.375" stroke="#79716B" stroke-miterlimit="10"/>
<path id="XMLID_729_" d="M46 37.875L44.625 35.5" stroke="#79716B" stroke-miterlimit="10"/>
<path id="XMLID_730_" d="M42.875 39.25L42.125 36.5" stroke="#79716B" stroke-miterlimit="10"/>
<path id="XMLID_731_" d="M39.625 39.625V36.75" stroke="#79716B" stroke-miterlimit="10"/>
<path id="XMLID_732_" d="M36.375 39.125L37 36.5" stroke="#79716B" stroke-miterlimit="10"/>
<path id="XMLID_733_" d="M33.25 37.875L34.625 35.5" stroke="#79716B" stroke-miterlimit="10"/>
<path id="XMLID_741_" d="M33.375 15.875L34.75 18.375" stroke="#79716B" stroke-miterlimit="10"/>
<path id="XMLID_742_" d="M36.5 14.625L37.25 17.375" stroke="#79716B" stroke-miterlimit="10"/>
</g>
</g>
</svg>
